<svg width="39" height="34" viewBox="0 0 39 34" fill="none" xmlns="http://www.w3.org/2000/svg">
<path d="M12.3606 1.7395C6.7639 1.7395 2 6.3993 2 12.4521C2 16.6261 3.75486 20.1408 6.0798 23.0556C8.39979 25.9556 11.389 28.3945 14.0907 30.432L14.3187 30.6005C17.5112 33.0048 21.6951 33.0048 24.8876 30.6005L25.1156 30.432C27.8173 28.3945 30.8114 25.9556 33.1265 23.0556C35.4514 20.1457 37.2063 16.631 37.2063 12.4521C37.2063 6.3993 32.4424 1.7395 26.8457 1.7395C23.9605 1.7395 21.4224 3.2465 19.6031 5.19469C17.7838 3.2465 15.2457 1.7395 12.3606 1.7395Z" fill="#8B9E44"/>
<path d="M12.3606 1.7395C6.7639 1.7395 2 6.3993 2 12.4521C2 16.6261 3.75486 20.1408 6.0798 23.0556C8.39979 25.9556 11.389 28.3945 14.0907 30.432L14.3187 30.6005C17.5112 33.0048 21.6951 33.0048 24.8875 30.6005L25.1156 30.432C27.8173 28.3945 30.8114 25.9556 33.1265 23.0556C35.4514 20.1457 37.2063 16.631 37.2063 12.4521C37.2063 6.3993 32.4424 1.7395 26.8457 1.7395C23.9605 1.7395 21.4224 3.2465 19.6031 5.19469C17.7838 3.2465 15.2457 1.7395 12.3606 1.7395Z" stroke="#387A38" stroke-width="2.5" stroke-miterlimit="10"/>
</svg>
