<svg width="38" height="34" viewBox="0 0 38 34" fill="none" xmlns="http://www.w3.org/2000/svg">
<path d="M11.8379 2C6.24119 2 1.47729 6.6598 1.47729 12.7126C1.47729 16.8866 3.23215 20.4013 5.5571 23.3161C7.87708 26.2161 10.8663 28.6551 13.568 30.6925L13.796 30.861C16.9885 33.2653 21.1724 33.2653 24.3648 30.861L24.5929 30.6925C27.2946 28.6551 30.2887 26.2161 32.6038 23.3161C34.9287 20.4062 36.6836 16.8915 36.6836 12.7126C36.6836 6.6598 31.9197 2 26.323 2C23.4378 2 20.8997 3.507 19.0804 5.45519C17.2611 3.507 14.723 2 11.8379 2Z" fill="#D8D8D8"/>
<path d="M11.8379 2C6.24119 2 1.47729 6.6598 1.47729 12.7126C1.47729 16.8866 3.23215 20.4013 5.5571 23.3161C7.87708 26.2161 10.8663 28.655 13.568 30.6925L13.796 30.861C16.9885 33.2653 21.1724 33.2653 24.3648 30.861L24.5929 30.6925C27.2946 28.655 30.2887 26.2161 32.6038 23.3161C34.9287 20.4062 36.6836 16.8915 36.6836 12.7126C36.6836 6.6598 31.9197 2 26.323 2C23.4378 2 20.8997 3.507 19.0804 5.45519C17.2611 3.507 14.723 2 11.8379 2Z" stroke="#999899" stroke-width="2.5" stroke-miterlimit="10"/>
</svg>
