<svg width="41" height="37" viewBox="0 0 41 37" fill="none" xmlns="http://www.w3.org/2000/svg">
<path d="M1.7858 31.232C1.86688 31.7885 2.01798 32.3376 2.39759 32.7394C3.02781 33.4064 4.05606 33.4507 4.97374 33.447C10.2145 33.4285 15.4442 33.3733 20.685 33.3917C21.3189 33.3917 21.9933 33.3843 22.5314 33.0489C23.357 32.533 23.5781 31.4531 23.7108 30.4912C24.5658 24.2148 24.6874 17.8352 24.083 11.5294C23.8987 9.60185 22.2698 8.13503 20.3349 8.14977C16.9442 8.17557 12.1052 8.20505 11.4528 8.21242C9.37422 8.22716 7.29192 8.24191 5.2133 8.26033C3.98603 8.27139 2.60397 8.17925 1.76737 9.24804C1.08555 10.1178 1.0745 11.4225 1.02658 12.4692C0.91602 15.0195 0.997101 17.5883 1.02658 20.1276C1.07081 23.8426 1.24771 27.5612 1.78948 31.2357L1.7858 31.232Z" fill="#E8E8E8"/>
<path d="M17.7771 29.92C17.4675 32.5256 14.9208 33.5613 14.8103 33.6055C14.4528 33.7455 12.8275 34.3279 11.2169 33.5134C10.9663 33.3844 10.7267 33.2296 10.5019 33.0527C10.2403 32.8463 9.89383 32.7984 9.5953 32.9495C9.41103 33.0453 9.21938 33.1301 9.02405 33.2038C8.52651 33.3954 6.23782 34.2173 3.97861 33.0674C1.61253 31.8623 0.282067 29.0908 0.613761 26.5109C0.669043 26.076 1.07076 23.3193 3.5253 21.9704C6.04986 20.581 9.45157 21.3918 10.4872 23.0797C11.0621 24.0158 10.8926 25.1989 11.6997 25.5011C12.1678 25.678 12.4589 25.3611 13.325 25.2652C14.2685 25.1584 15.2415 25.3869 15.8864 25.7517C17.2169 26.4999 17.9724 28.2726 17.7771 29.9163V29.92Z" fill="#6CA6C3"/>
<path d="M0.853691 31.49C0.975312 32.2603 1.25909 33.0343 1.86352 33.565C2.46794 34.0957 3.2124 34.2947 3.99004 34.3795C4.76768 34.4642 5.62272 34.4163 6.43352 34.4126C7.31804 34.4089 8.19887 34.4053 9.08339 34.3979C12.6141 34.3758 16.1485 34.3537 19.6792 34.3573C21.2639 34.3573 22.9408 34.4605 23.9322 32.9827C24.2971 32.4372 24.4777 31.7701 24.5846 31.1325C24.7283 30.2665 24.8241 29.3893 24.9199 28.5195C25.3069 25.0404 25.4728 21.5392 25.4138 18.038C25.3843 16.2874 25.2995 14.5405 25.1595 12.7935C25.0968 12.0048 25.0858 11.1682 24.8278 10.4127C24.6067 9.76775 24.2639 9.18913 23.8032 8.68422C22.9003 7.69651 21.5919 7.18054 20.2689 7.18422C18.9458 7.18791 17.5711 7.20265 16.2222 7.21371C14.0809 7.22845 11.9396 7.24319 9.79838 7.25793C8.09568 7.26899 6.39667 7.28373 4.69397 7.29479C3.264 7.30216 1.83035 7.53066 0.927401 8.75793C0.0244557 9.9852 0.0834235 11.5884 0.0355122 13.011C-0.0234557 14.7763 0.00234275 16.5417 0.0318267 18.307C0.087109 21.8193 0.142391 25.3279 0.514626 28.8254C0.610449 29.7136 0.724699 30.6018 0.853691 31.49C0.927401 32.006 1.58342 32.2898 2.0441 32.1645C2.60061 32.0134 2.79594 31.4937 2.71855 30.9741C2.26155 27.8303 2.08096 24.6461 2.01462 21.4729C1.94828 18.2997 1.85614 15.1007 2.01462 11.9238C2.06253 10.9287 2.16941 9.67193 3.29349 9.35866C3.80945 9.21493 4.35491 9.22967 4.89299 9.22599C5.64114 9.22599 6.39298 9.21493 7.14114 9.20756C9.34875 9.18913 11.5527 9.17439 13.7603 9.15965C14.936 9.15228 16.1153 9.14491 17.291 9.13753C17.9286 9.13385 18.5662 9.13016 19.2001 9.12279C19.7308 9.11911 20.3352 9.05645 20.8364 9.15228C21.7652 9.32549 22.5539 9.94097 22.9261 10.8107C23.1656 11.3709 23.1657 12.0085 23.2172 12.613C23.2836 13.4238 23.3389 14.2383 23.3831 15.0527C23.5526 18.2776 23.5342 21.5097 23.3278 24.7308C23.2209 26.3561 23.0698 27.9778 22.8671 29.5957C22.7639 30.4249 22.7602 31.9949 21.8204 32.323C21.205 32.5404 20.4163 32.4225 19.7787 32.4225C18.9568 32.4225 18.135 32.4225 17.3131 32.4225C15.6988 32.4225 14.0846 32.4335 12.474 32.4409C10.8635 32.4483 9.18658 32.4593 7.54286 32.4704C6.75048 32.4741 5.9581 32.4777 5.16572 32.4814C4.60184 32.4814 3.9753 32.5257 3.44459 32.3008C2.91388 32.076 2.81437 31.4937 2.72961 30.9741C2.64484 30.4544 2.00356 30.1706 1.53919 30.2996C0.990054 30.4507 0.779981 30.9704 0.864748 31.49H0.853691Z" fill="#313D34"/>
<path d="M1.11914 10.4496C1.27393 9.65717 1.57614 8.55152 2.2211 7.35374C2.79604 6.28126 3.45574 5.48151 3.98277 4.93237C9.72845 4.9766 15.4704 5.02082 21.2161 5.06874C21.7137 5.68053 22.2665 6.46554 22.7751 7.42376C23.4274 8.65472 23.8033 9.79722 24.0281 10.7039C16.3918 10.6191 8.75916 10.5343 1.12283 10.4532L1.11914 10.4496Z" fill="#6CA6C3"/>
<path d="M2.0547 11.0871C2.43431 9.17067 3.31883 7.41637 4.66772 5.99746L3.98222 6.28124C9.7279 6.32547 15.4699 6.36969 21.2156 6.4176L20.5301 6.13382C21.7573 7.65593 22.6124 9.44708 23.0915 11.3377L24.0276 10.1105C16.3913 10.0257 8.75861 9.94093 1.12228 9.85985C-0.127106 9.84511 -0.127106 11.7874 1.12228 11.8021C8.75861 11.8869 16.3913 11.9716 24.0276 12.0527C24.6689 12.0601 25.1148 11.4299 24.9637 10.8255C24.492 8.95322 23.6738 7.1547 22.5387 5.59206C22.2622 5.21245 21.9564 4.64857 21.4736 4.51589C21.1971 4.4385 20.8581 4.47904 20.5743 4.47535C20.2389 4.47535 19.9035 4.47167 19.5645 4.46798C18.4662 4.46061 17.3642 4.44955 16.266 4.44218C14.0031 4.42375 11.7439 4.40533 9.48097 4.39059C8.34952 4.38321 7.21808 4.37216 6.09032 4.36479C5.54118 4.3611 4.99204 4.35742 4.43922 4.35373C4.11858 4.35373 3.77951 4.31319 3.49205 4.48272C3.29303 4.60066 3.13455 4.80336 2.97976 4.97658C1.57928 6.56502 0.59525 8.49991 0.182476 10.5785C0.0792819 11.0908 0.329895 11.6252 0.860606 11.7726C1.33972 11.9053 1.95151 11.6105 2.0547 11.0945V11.0871Z" fill="#313D34"/>
<path d="M20.449 1H5.06211C4.35175 1 3.77588 1.57587 3.77588 2.28624V4.20269C3.77588 4.91306 4.35175 5.48893 5.06211 5.48893H20.449C21.1594 5.48893 21.7353 4.91306 21.7353 4.20269V2.28624C21.7353 1.57587 21.1594 1 20.449 1Z" fill="#E8E8E8"/>
<path d="M20.449 1H5.06211C4.35175 1 3.77588 1.57587 3.77588 2.28624V4.20269C3.77588 4.91306 4.35175 5.48893 5.06211 5.48893H20.449C21.1594 5.48893 21.7353 4.91306 21.7353 4.20269V2.28624C21.7353 1.57587 21.1594 1 20.449 1Z" stroke="#313D34" stroke-width="1.5" stroke-miterlimit="10"/>
<path d="M37.056 35.4666C34.4319 37.0403 30.0904 36.2664 28.3066 35.9937C25.513 35.5698 21.6285 35.2529 16.7232 35.7062C16.4246 35.7062 14.862 35.6693 13.6015 34.4052C12.7981 33.6055 12.3006 32.4998 12.3006 31.2836C12.1568 28.5932 12.0131 25.8991 11.8694 23.2087C11.3718 21.823 11.7993 20.2751 12.9271 19.3647C13.9959 18.5023 15.4996 18.366 16.7232 19.0294C22.6679 18.6276 28.6125 18.2296 34.5572 17.8279C34.8926 17.8205 36.4258 17.8168 37.6346 18.9814C38.7845 20.0908 39.1862 21.823 38.6924 23.4519V31.2873C38.8472 31.678 39.1125 32.5219 38.8361 33.4507C38.4897 34.6116 37.5019 35.2013 37.056 35.4703V35.4666Z" fill="#F5C71D"/>
<path d="M15.6471 35.9974C16.8073 35.9974 17.7478 35.0568 17.7478 33.8966C17.7478 32.7364 16.8073 31.7959 15.6471 31.7959C14.4869 31.7959 13.5464 32.7364 13.5464 33.8966C13.5464 35.0568 14.4869 35.9974 15.6471 35.9974Z" fill="#C08715"/>
<path d="M15.4003 17.6953C14.2246 17.1425 12.9716 17.4005 11.9802 18.2039C10.9888 19.0074 10.5649 20.3452 10.4323 21.6167C10.2848 23.0172 10.3622 24.4582 10.4175 25.8624C10.4728 27.2665 10.5649 28.6744 10.7234 30.0712C10.8598 31.3095 11.0662 32.5478 11.6448 33.6682C12.2234 34.7886 13.2038 35.6068 14.3794 36.0638C15.4556 36.4839 16.646 36.5761 17.7922 36.5945C19.2295 36.6203 20.6706 36.5798 22.1079 36.5687C25.517 36.5429 28.9261 36.5134 32.3351 36.4876C33.5219 36.4766 33.5219 34.6338 32.3351 34.6449C29.6558 34.667 26.9801 34.6891 24.3008 34.7075C22.9629 34.7186 21.6214 34.7297 20.2836 34.7407C19.1227 34.7518 17.958 34.7997 16.8008 34.7075C15.8794 34.6338 14.8991 34.4348 14.1472 33.8673C13.3954 33.2997 13.0342 32.4004 12.8168 31.5159C12.5514 30.4287 12.4851 29.2972 12.4003 28.1879C12.3008 26.8796 12.2418 25.5638 12.2271 24.2518C12.2124 23.0282 12.0871 21.6351 12.5551 20.4742C12.8278 19.7961 13.705 18.9226 14.4789 19.2838C14.9286 19.4938 15.474 19.4091 15.7394 18.9521C15.9716 18.554 15.861 17.9054 15.4077 17.6916L15.4003 17.6953Z" fill="#946C26"/>
<path d="M29.1067 19.3649C29.0993 20.0946 28.5796 20.7285 28.001 20.9975C26.7701 21.5725 24.8978 20.6916 24.7799 19.4754C24.6878 18.5282 25.6755 17.4152 26.8806 17.3747C28.0342 17.3378 29.1177 18.2961 29.1067 19.3612V19.3649Z" fill="#C08715"/>
<path d="M30.5144 31.726C29.3608 32.8501 27.7355 32.5958 27.5844 32.57C26.1581 32.3231 24.6766 31.1216 24.7392 29.8317C24.7835 28.9435 25.55 28.3428 26.1287 27.8894C26.394 27.6831 29.0291 25.6671 30.6065 26.8428C31.8854 27.7936 31.878 30.3919 30.5107 31.726H30.5144Z" fill="#C08715"/>
<path d="M17.0809 19.2394C22.3954 18.9556 27.7099 18.6719 33.028 18.3918C34.0452 18.3365 35.1546 18.2185 36.0464 18.8156C36.7504 19.2873 37.2074 20.0834 37.5206 20.85C38.3904 22.9912 38.6337 25.4716 38.5968 27.7603C38.5747 29.0944 38.4752 30.4728 38.1066 31.7627C37.8081 32.8057 37.2037 33.8966 36.1165 34.2615C35.0292 34.6263 35.4789 36.4175 36.6066 36.0379C39.3265 35.1239 40.0563 32.2455 40.3216 29.6915C40.6054 26.9679 40.3916 24.1485 39.673 21.506C39.087 19.35 37.8265 17.0576 35.4347 16.6154C34.0489 16.3611 32.5858 16.5674 31.1927 16.6448L26.9764 16.8697C23.6779 17.0466 20.3794 17.2198 17.0772 17.3967C15.8979 17.4593 15.8905 19.3021 17.0772 19.2394H17.0809Z" fill="#946C26"/>
<path d="M15.7504 21.4212C21.555 25.232 28.2258 27.5796 35.125 28.3204C35.6189 28.372 36.0464 27.8597 36.0464 27.3991C36.0464 26.8573 35.6225 26.533 35.125 26.4777C28.5538 25.7701 22.2 23.4519 16.6791 19.8291C15.684 19.1767 14.759 20.7725 15.7504 21.4212Z" fill="#C08715"/>
<path d="M21.2088 28.3684C21.1203 29.3488 19.9962 29.9532 19.1265 29.7136C18.6289 29.5773 18.1903 29.1534 18.0687 28.6227C17.8734 27.7824 18.4926 26.7689 19.4471 26.6694C20.4127 26.5662 21.2935 27.4434 21.2088 28.3684Z" fill="#C08715"/>
</svg>
