<svg width="36" height="35" viewBox="0 0 36 35" fill="none" xmlns="http://www.w3.org/2000/svg">
<path fill-rule="evenodd" clip-rule="evenodd" d="M33.4195 28.249C33.0527 30.7673 31.0599 32.7006 28.6011 32.9187L26.0332 33.1467C20.6695 33.6276 15.281 33.6276 9.92224 33.1467L7.35439 32.9187C4.89561 32.7006 2.9028 30.7673 2.53596 28.249C1.87169 23.6983 1.85186 18.4238 2.32775 13.8532C2.35254 13.6351 2.30297 13.0154 2.53596 12.2669C2.93254 11.0077 3.7951 10.2096 4.42467 9.6792C9.08447 5.76299 13.2238 3.71069 13.2238 3.71069C16.4856 2.06489 17.4225 1.95087 18.2008 1.9707C18.8849 1.99053 19.6979 2.11942 22.7317 3.71069C25.8796 5.36145 27.6642 6.93785 31.4862 9.73869C32.1852 10.2493 33.0378 11.0623 33.4294 12.2669C33.6674 13.0005 33.6079 13.6103 33.6376 13.8532C34.1135 18.4287 34.0937 23.6983 33.4294 28.249H33.4195Z" fill="#8B9E44"/>
<path fill-rule="evenodd" clip-rule="evenodd" d="M33.4195 28.249C33.0527 30.7673 31.0599 32.7006 28.6011 32.9187L26.0332 33.1467C20.6695 33.6276 15.281 33.6276 9.92224 33.1467L7.35439 32.9187C4.89561 32.7006 2.9028 30.7673 2.53596 28.249C1.87169 23.6983 1.85186 18.4238 2.32775 13.8532C2.35254 13.6351 2.30297 13.0154 2.53596 12.2669C2.93254 11.0077 3.7951 10.2096 4.42467 9.6792C9.08447 5.76299 13.2238 3.71069 13.2238 3.71069C16.4856 2.06489 17.4225 1.95087 18.2008 1.9707C18.8849 1.99053 19.6979 2.11942 22.7317 3.71069C25.8796 5.36145 27.6642 6.93785 31.4862 9.73868C32.1852 10.2493 33.0378 11.0623 33.4294 12.2669C33.6674 13.0005 33.6079 13.6103 33.6376 13.8532C34.1135 18.4287 34.0937 23.6983 33.4294 28.249H33.4195Z" stroke="#387A38" stroke-width="3" stroke-miterlimit="10"/>
<path fill-rule="evenodd" clip-rule="evenodd" d="M24.6946 24.2931V33.0872H11.3447V24.2931C11.3447 21.5269 13.6102 19.2615 16.3763 19.2615H19.663C22.4291 19.2615 24.6946 21.5269 24.6946 24.2931Z" fill="#387A38"/>
</svg>
