<svg width="42" height="28" viewBox="0 0 42 28" fill="none" xmlns="http://www.w3.org/2000/svg">
<path d="M37.7011 16.2974C36.1995 18.757 34.0251 19.9557 29.743 22.246C24.8905 24.8482 22.4621 26.1716 19.0534 26.6305C16.1927 27.0227 9.82081 27.8604 4.94164 23.5605C1.46607 20.4993 0.410029 16.2885 0.164956 13.1204C0.164956 13.1115 0.164956 13.0981 0.164956 13.0892C-0.0712043 11.4316 -0.0489242 9.89878 0.200604 8.71352C0.200604 8.70461 0.200604 8.70016 0.200604 8.69125C0.953645 4.59631 6.05115 1.98517 6.45663 1.78911C9.64703 0.202826 13.1181 0.345414 16.5313 0.483545C18.9509 0.581574 19.9356 0.902396 22.6715 0.773176C26.0268 0.617221 26.4991 0.0424149 28.4374 0.00231217C33.2319 -0.100173 39.0825 3.21944 39.2429 6.93563C39.2429 6.96237 39.2429 6.98911 39.2429 7.01584C39.2429 7.02475 39.2429 7.02921 39.2429 7.03812C39.2963 7.51935 39.3364 8.08525 39.3409 8.71352C39.4924 10.7632 39.3142 13.6373 37.6967 16.2974H37.7011Z" fill="#3E1A1A"/>
<path d="M36.2887 15.7718C34.9074 17.973 32.9023 19.0469 28.9544 21.101C24.4762 23.4315 22.2438 24.6123 19.098 25.0267C16.4601 25.3742 10.5873 26.1273 6.09134 22.2774C0.472498 17.4695 1.71568 9.51134 1.81371 8.91871C2.05433 8.95436 2.30386 8.98109 2.5623 8.99446C4.48277 9.11477 6.13144 8.62463 7.35235 8.08101C10.0704 6.59275 13.3633 5.67039 16.2329 5.50107C18.5989 5.35848 20.5773 5.73277 21.9007 6.08478C23.1751 5.83971 25.1223 5.61246 27.4037 5.93774C29.0925 6.17836 31.062 6.7398 32.8176 7.55967C34.4173 7.52403 36.0125 7.49284 37.6121 7.46165C37.9107 9.12814 38.2627 12.6171 36.2887 15.7718Z" fill="#DE9D9D"/>
<path d="M36.0566 15.6782C34.6931 17.8526 32.7191 18.9087 28.8247 20.9361C24.4089 23.2309 22.2033 24.3983 19.1065 24.8083C16.5042 25.1514 10.7161 25.8955 6.27804 22.0991C0.739405 17.358 1.96031 9.50682 2.0628 8.9231C2.29896 8.95875 2.54403 8.98103 2.79801 8.99885C4.69175 9.1147 6.31814 8.63347 7.52123 8.09877C10.2037 6.62833 13.452 5.72379 16.2815 5.55447C18.6163 5.41634 20.568 5.78172 21.8736 6.12928C23.1301 5.88866 25.0506 5.66141 27.3008 5.98223C28.9673 6.22285 30.9056 6.77092 32.6389 7.58189C34.2163 7.54624 35.7892 7.51505 37.3666 7.48386C37.6607 9.12362 38.0082 12.5725 36.061 15.6782H36.0566Z" fill="#DE9D9D"/>
<path d="M37.6568 7.43035C37.746 9.42658 35.9191 11.0619 35.1749 11.7392C33.0807 13.6329 30.6923 14.0919 28.7496 14.5642C25.1002 15.4464 25.1047 15.6514 22.7965 16.5292C20.377 17.4516 20.0339 17.7546 18.5813 18.1333C16.2954 18.7304 14.2368 18.7482 13.0649 18.6502C8.32835 18.2536 1.54207 14.4528 1.68912 9.75631C1.81834 5.67028 7.12527 3.03241 7.52184 2.84081C10.4583 1.4283 13.6442 1.55307 16.7856 1.67783C19.0091 1.76695 19.9181 2.05212 22.4312 1.93627C25.5146 1.79368 25.9468 1.28126 27.7292 1.24561C32.136 1.1565 37.5098 4.11964 37.6613 7.43481L37.6568 7.43035Z" fill="#DE9D9D"/>
<path d="M36.9039 7.16736C36.9885 9.09674 35.2686 10.6206 34.5244 11.2935C32.5193 13.107 30.229 13.5482 28.3664 13.9982C24.873 14.8448 24.873 15.0409 22.6629 15.883C20.3459 16.7653 20.0206 17.0549 18.6259 17.4203C16.4381 17.9951 14.4641 18.0085 13.3413 17.9149C10.0528 17.6431 2.28181 14.2433 2.44667 9.39529C2.54916 6.26282 5.91334 4.05716 6.45695 3.70069C8.28385 2.50207 9.95481 2.30601 12.7665 2.00747C17.7793 1.47722 18.7239 2.49761 24.2448 2.17679C28.0233 1.95845 28.4021 1.43266 30.3849 1.87825C33.0273 2.47533 36.7746 4.40918 36.8994 7.17181L36.9039 7.16736Z" fill="#9C2B29"/>
<path d="M23.1037 12.2649C23.1037 13.8468 18.6656 15.794 14.3657 15.5355C10.3064 15.2949 4.55391 12.9823 4.41132 9.26167C4.32666 7.02038 6.30061 4.89047 8.39486 3.95029C10.8144 2.86306 13.577 3.28191 15.3104 4.53846C16.558 5.443 16.2862 6.07128 17.7433 7.80906C20.4079 10.9861 23.1081 11.0262 23.1081 12.2605L23.1037 12.2649Z" fill="#C3605F"/>
<path d="M25.8352 3.4647C26.0001 3.51372 26.7487 3.75879 27.0784 4.39598C27.622 5.43419 26.3566 6.19614 26.5972 7.56409C26.8512 9.00779 28.482 9.45338 28.2325 10.2109C28.032 10.8124 26.8512 10.9951 26.4234 11.0441C26.4234 11.0441 26.3521 11.053 26.2853 11.0575C24.6812 11.1867 22.627 10.0727 22.627 10.0727C21.2546 9.32416 19.147 8.14781 17.6899 5.79066C17.2265 5.03762 16.9725 4.61877 17.1686 4.27121C17.7345 3.24636 21.0898 4.65442 23.3355 3.73651C23.3355 3.73651 24.797 3.13497 25.8397 3.46025L25.8352 3.4647Z" fill="#C3605F"/>
<path d="M32.3407 8.32153C31.3292 9.24389 29.4889 9.46669 28.5042 8.49085C28.0452 8.03636 27.7021 7.25658 27.8402 6.5481C27.9606 5.92428 28.3794 5.76832 28.4774 5.00637C28.5665 4.31125 28.268 4.08846 28.4507 3.80774C28.7938 3.27749 30.2865 3.45573 31.3515 4.04836C31.6812 4.23105 33.2229 5.08657 33.2051 6.55255C33.1917 7.54621 32.4743 8.20122 32.3451 8.31707L32.3407 8.32153Z" fill="#C3605F"/>
<path d="M40.3257 24.4471C38.7929 26.3721 36.663 27.0493 36.663 27.0493C36.0703 27.2409 35.4421 27.3523 34.796 27.3835C34.6846 27.3924 34.5687 27.3924 34.4529 27.3924C34.337 27.3924 34.2212 27.3924 34.1098 27.3835C33.4637 27.3523 32.8354 27.2365 32.2428 27.0493C32.2428 27.0493 30.1129 26.3721 28.58 24.4471C26.2496 21.5152 26.7086 16.8632 28.4018 13.6907C28.8563 12.8441 31.0931 8.76248 34.4038 8.7714C34.4217 8.7714 34.435 8.7714 34.4529 8.7714C34.4662 8.7714 34.4841 8.7714 34.5019 8.7714C37.8126 8.75803 40.0539 12.8441 40.5039 13.6907C42.1972 16.8632 42.6561 21.5152 40.3257 24.4471Z" fill="#3E1A1A"/>
<path d="M39.479 23.3154C38.1645 24.9685 36.3376 25.5478 36.3376 25.5478C35.8296 25.7082 35.2905 25.8107 34.7335 25.8374C34.6355 25.8419 34.5374 25.8463 34.4394 25.8463C34.3414 25.8463 34.2433 25.8463 34.1453 25.8374C33.5883 25.8107 33.0536 25.7126 32.5412 25.5478C32.5412 25.5478 30.7143 24.9685 29.3998 23.3154C27.4036 20.8023 27.7913 16.8143 29.2483 14.0917C29.636 13.3654 31.5565 9.86314 34.3948 9.8765C34.4082 9.8765 34.4216 9.8765 34.4394 9.8765C34.4528 9.8765 34.4661 9.8765 34.4795 9.8765C37.3224 9.86759 39.2384 13.3699 39.626 14.0917C41.0786 16.8143 41.4708 20.8023 39.4745 23.3154H39.479Z" fill="#FCE1C5"/>
</svg>
