<svg width="36" height="35" viewBox="0 0 36 35" fill="none" xmlns="http://www.w3.org/2000/svg">
<path fill-rule="evenodd" clip-rule="evenodd" d="M33.4195 28.1787C33.0527 30.697 31.0599 32.6303 28.6011 32.8484L26.0332 33.0764C20.6695 33.5573 15.281 33.5573 9.92224 33.0764L7.35439 32.8484C4.89561 32.6303 2.9028 30.697 2.53596 28.1787C1.87169 23.6279 1.85186 18.3534 2.32775 13.7829C2.35254 13.5648 2.30297 12.9451 2.53596 12.1966C2.93254 10.9374 3.7951 10.1393 4.42467 9.60889C9.08447 5.69267 13.2238 3.64038 13.2238 3.64038C16.4856 1.99457 17.4225 1.88056 18.2008 1.90039C18.8849 1.92022 19.6979 2.0491 22.7317 3.64038C25.8796 5.29114 27.6642 6.86754 31.4862 9.66837C32.1852 10.179 33.0378 10.992 33.4294 12.1966C33.6674 12.9302 33.6079 13.54 33.6376 13.7829C34.1135 18.3584 34.0937 23.6279 33.4294 28.1787H33.4195Z" fill="#D8D8D8"/>
<path fill-rule="evenodd" clip-rule="evenodd" d="M33.4195 28.1787C33.0527 30.697 31.0599 32.6303 28.6011 32.8484L26.0332 33.0764C20.6695 33.5573 15.281 33.5573 9.92224 33.0764L7.35439 32.8484C4.89561 32.6303 2.9028 30.697 2.53596 28.1787C1.87169 23.6279 1.85186 18.3534 2.32775 13.7829C2.35254 13.5648 2.30297 12.9451 2.53596 12.1966C2.93254 10.9374 3.7951 10.1393 4.42467 9.60889C9.08447 5.69267 13.2238 3.64038 13.2238 3.64038C16.4856 1.99457 17.4225 1.88056 18.2008 1.90039C18.8849 1.92022 19.6979 2.0491 22.7317 3.64038C25.8796 5.29114 27.6642 6.86754 31.4862 9.66837C32.1852 10.179 33.0378 10.992 33.4294 12.1966C33.6674 12.9302 33.6079 13.54 33.6376 13.7829C34.1135 18.3584 34.0937 23.6279 33.4294 28.1787H33.4195Z" stroke="#999899" stroke-width="3" stroke-miterlimit="10"/>
<path fill-rule="evenodd" clip-rule="evenodd" d="M24.6946 24.2177V33.0119H11.3447V24.2177C11.3447 21.4516 13.6102 19.1862 16.3763 19.1862H19.663C22.4291 19.1862 24.6946 21.4516 24.6946 24.2177Z" fill="#999899"/>
</svg>
