<svg width="32" height="35" viewBox="0 0 32 35" fill="none" xmlns="http://www.w3.org/2000/svg">
<path d="M15.0015 10.3812V8.79695C15.0015 5.06115 18.0308 2.0354 21.763 2.0354H21.9807C22.3767 2.0354 22.6943 2.35653 22.6943 2.74902V4.33326C22.7371 4.71504 22.9762 7.12351 21.2064 9.11094C19.1583 11.4052 16.2182 11.1269 15.9327 11.0984H15.7151C15.319 11.0984 15.0015 10.7772 15.0015 10.3848V10.3812Z" fill="#083C20"/>
<path d="M21.9199 3.48057V5.0434C21.9199 8.20474 19.3545 10.7666 16.1967 10.7666C15.8613 10.7666 15.5937 10.4955 15.5937 10.1636V8.6008C15.5937 5.43946 18.1591 2.87756 21.3169 2.87756C21.6523 2.87756 21.9199 3.14874 21.9199 3.48057Z" fill="#2A803A"/>
<path d="M14.3809 8.49024C12.4862 6.37079 8.44715 7.3199 8.23663 7.37342C5.26441 8.11202 3.62665 10.4099 3.02364 11.2841C-0.758549 16.7611 1.88184 23.8295 2.37067 25.0605C3.02007 26.6911 4.63999 30.7659 8.60771 32.5999C10.3704 33.4134 11.9867 33.4848 15.2158 33.6239C18.6947 33.7738 20.5573 33.8559 22.5697 33.0637C26.9192 31.3511 28.7782 26.816 29.2706 25.6171C31.3793 20.4755 31.3793 12.54 26.8514 9.51428C25.2137 8.41888 22.2164 7.45192 19.89 8.54733C17.7813 9.53926 16.9927 11.855 15.9616 11.5624C15.1266 11.3269 15.5263 9.77119 14.3809 8.49024Z" fill="#C01920"/>
<path d="M16.5 10.5811C17.1566 8.46876 18.4589 6.57053 20.2144 5.21822C20.4035 5.07193 20.507 4.83286 20.375 4.60807C20.2644 4.41896 19.9575 4.30122 19.7648 4.44751C17.8167 5.94611 16.3716 7.99063 15.6401 10.342C15.4688 10.8915 16.3288 11.127 16.5 10.5775V10.5811Z" fill="#083C20"/>
<path d="M14.8337 7.71949C13.2066 6.99516 11.4226 6.62408 9.63498 6.77394C8.40042 6.88098 7.2836 7.21281 6.15965 7.73732C4.43626 8.54372 2.93766 9.79969 1.85652 11.3697C0.775387 12.9396 0.236605 14.7915 0.0617678 16.6647C-0.195135 19.4193 0.372193 22.2702 1.33915 24.8464C2.25615 27.2834 3.44789 29.6597 5.37467 31.4616C6.66275 32.6641 8.23628 33.5918 9.95611 34.0057C11.7758 34.4446 13.6955 34.4446 15.5545 34.5231C17.4063 34.6016 19.2867 34.7193 21.1243 34.3946C22.9618 34.0699 24.5104 33.2278 25.8805 32.086C27.9286 30.3769 29.3059 28.0041 30.255 25.5457C31.4967 22.3309 31.8678 18.6521 31.2327 15.2625C30.9365 13.6889 30.3692 12.1047 29.4201 10.8023C28.3818 9.37152 27.0045 8.39742 25.3596 7.76944C23.4364 7.03441 21.1171 6.83103 19.2617 7.86578C17.7524 8.70785 16.9888 10.6096 15.1441 10.8237C14.17 10.9379 13.1852 10.6418 12.3146 10.2279C11.8793 10.0209 11.3512 10.1065 11.0943 10.549C10.866 10.9379 10.9766 11.5623 11.4155 11.7693C13.2923 12.6613 15.6151 13.0859 17.4456 11.8371C18.1449 11.3589 18.6551 10.7167 19.2439 10.1244C19.8326 9.53208 20.4856 9.16813 21.2955 9.01114C22.9511 8.69001 24.8172 9.28945 26.2159 10.1636C27.3756 10.888 28.2069 11.9976 28.7778 13.2786C29.9981 16.0189 29.9624 19.4122 29.3345 22.3416C29.1739 23.0909 28.9705 23.8295 28.7207 24.5538C28.6173 24.8535 28.5031 25.1532 28.3818 25.4494C28.3532 25.5172 28.3247 25.5885 28.2961 25.6563C28.4103 25.378 28.2605 25.7348 28.2319 25.7991C27.7538 26.8766 27.1722 27.9149 26.4728 28.864C25.5951 30.0522 24.4105 31.1441 23.0617 31.8577C21.713 32.5713 20.4071 32.7818 18.9798 32.8211C17.0031 32.871 15.005 32.7461 13.0354 32.6213C11.6474 32.5356 10.1987 32.3644 8.99629 31.797C7.5405 31.112 6.2881 30.0451 5.33542 28.7534C4.89654 28.1611 4.51119 27.5296 4.16508 26.8766C4.02236 26.6054 3.88677 26.3307 3.75832 26.056C3.7048 25.9418 3.65484 25.8276 3.60132 25.7134C3.57635 25.6563 3.41578 25.2781 3.49428 25.4708C2.73071 23.6368 2.10986 21.6422 1.8922 19.7333C1.51042 16.3935 2.19549 12.9753 4.83232 10.6881C6.88754 8.90766 9.5993 8.11198 12.336 8.74353C12.6821 8.8256 13.0247 8.92193 13.3636 9.03968C13.485 9.0825 13.6098 9.12889 13.7276 9.17527C13.7847 9.19668 13.8453 9.22166 13.9024 9.24663C13.6955 9.161 13.8882 9.24306 13.9274 9.25734C14.3663 9.45358 14.8872 9.38579 15.1477 8.93621C15.3689 8.55799 15.269 7.91216 14.8266 7.71592L14.8337 7.71949Z" fill="#3E1A1A"/>
<path d="M16.2182 10.2993C15.9078 8.79718 15.972 7.07022 16.4501 5.50026C16.889 4.06588 17.6633 2.76709 18.6409 1.72164C19.4259 0.883134 18.1664 -0.379971 17.3778 0.458532C14.7981 3.21667 13.7312 7.07736 14.4948 10.7739C14.5911 11.2449 15.1478 11.5196 15.5938 11.3983C16.0826 11.2627 16.3145 10.7739 16.2182 10.2993Z" fill="#3E1A1A"/>
<path d="M16.2464 10.21C15.8503 8.65071 15.8325 6.99511 16.2428 5.40373C16.4604 4.55453 16.7851 3.75171 17.2169 2.9917C17.5558 2.40296 17.877 1.94981 18.2445 1.52164C18.5585 1.15413 18.6049 0.618912 18.2445 0.258534C17.9234 -0.0625955 17.2989 -0.108981 16.9814 0.258534C14.5337 3.12729 13.5952 7.02008 14.5265 10.6845C14.8084 11.7978 16.5318 11.3268 16.2464 10.21Z" fill="#3E1A1A"/>
</svg>
