<svg width="41" height="37" viewBox="0 0 41 37" fill="none" xmlns="http://www.w3.org/2000/svg">
<path d="M22.5462 9.73478C22.1994 8.2676 22.8603 6.94572 24.1822 4.30198C24.3978 3.87541 24.7259 3.36448 25.3306 2.9801C25.8275 2.66135 26.5025 2.56291 27.0087 2.8676C27.7775 3.32697 27.8197 4.4051 27.7681 5.29572C27.7353 5.84416 27.8103 6.55666 28.3447 6.70197C28.6681 6.79103 29.0009 6.59885 29.2681 6.39728C30.3275 5.59103 31.1056 4.47541 31.954 3.44416C32.8025 2.4176 33.7962 1.42385 35.0712 1.02541C36.3462 0.626975 37.9447 1.00197 38.5775 2.17854C39.0368 3.03635 38.8868 4.11916 38.4322 4.98166C37.9775 5.84416 37.2603 6.53322 36.5525 7.20353C37.4009 7.43322 38.2728 7.67229 38.9853 8.18791C39.6978 8.70354 40.2228 9.57541 40.0822 10.4426C39.9743 11.1129 39.454 11.8395 37.6775 12.6457C33.8009 14.4035 26.615 15.3738 23.5728 11.6942C23.3197 11.3895 22.79 10.7285 22.5556 9.73947L22.5462 9.73478Z" fill="#298D3A"/>
<path d="M23.3896 9.9691C23.6427 8.17848 24.1068 6.35973 24.9365 4.74723C25.1802 4.2738 26.0615 3.05505 26.6708 3.72536C27.1865 4.29255 26.7927 5.54411 26.9521 6.24723C27.2099 7.36754 28.3208 7.89723 29.3521 7.37223C30.3833 6.84723 31.1239 5.8488 31.8083 5.00036C32.9239 3.61286 34.4146 1.44255 36.4818 1.77067C37.4521 1.92536 38.0802 2.63786 37.9489 3.6363C37.7896 4.86442 36.7677 5.76911 35.9193 6.57536C35.4364 7.03473 35.6802 7.87379 36.3083 8.04254C37.3161 8.31442 38.6708 8.61911 39.1208 9.70192C39.463 10.5222 38.7505 11.0566 38.1177 11.4269C36.6927 12.266 35.0005 12.7113 33.4021 13.0722C31.7146 13.4519 29.9943 13.6863 28.2646 13.7191C26.938 13.7425 25.3489 13.6769 24.1958 13.1566C23.9286 13.0347 23.6427 12.8613 23.5208 12.7535C23.249 12.5097 23.2958 12.5097 23.1083 12.2144C23.0333 12.1019 23.1458 12.3785 23.1224 12.2144C23.1411 12.341 23.1318 12.3316 23.1318 12.2144C23.1318 12.0457 23.1411 11.8816 23.1552 11.7175C23.2068 11.1363 23.3005 10.555 23.3802 9.97379C23.4458 9.50036 23.263 9.03629 22.7661 8.89098C22.3536 8.7738 21.7536 9.03629 21.6833 9.50504C21.5896 10.1754 21.4865 10.8504 21.4115 11.5254C21.374 11.9004 21.3271 12.3082 21.4208 12.6832C21.5896 13.3675 22.1286 13.93 22.6911 14.3238C24.074 15.2941 25.9865 15.4535 27.6224 15.4769C29.7364 15.505 31.8693 15.2144 33.9318 14.7504C35.9943 14.2863 38.2724 13.6863 39.8661 12.3316C40.9208 11.4363 41.2536 10.0722 40.6302 8.81129C39.8849 7.31598 38.2724 6.75348 36.7677 6.34567L37.1568 7.81286C38.1036 6.91286 39.0458 5.95661 39.4818 4.70036C39.8849 3.53786 39.7771 2.19255 38.9708 1.23161C37.3396 -0.709012 34.5224 -0.104326 32.788 1.3113C31.7943 2.12223 31.0536 3.16286 30.2427 4.14723C29.8396 4.63473 29.4224 5.11286 28.9396 5.52067C28.8974 5.55348 28.6818 5.68942 28.6396 5.75505L28.4802 5.84411C28.6677 5.99411 28.7333 6.01755 28.6724 5.91911C28.7005 5.89098 28.6255 5.38005 28.6255 5.30036C28.6583 4.18005 28.5739 2.90036 27.5614 2.19723C26.4693 1.44255 25.0724 1.88786 24.1958 2.75974C23.2021 3.74411 22.7193 5.29098 22.3208 6.59411C22.0302 7.54567 21.8193 8.52067 21.6786 9.50504C21.613 9.97848 21.7958 10.4425 22.2927 10.5879C22.7052 10.705 23.3052 10.4425 23.3755 9.97379L23.3896 9.9691Z" fill="#014324"/>
<path d="M22.4241 10.4847C21.6179 9.90343 18.7913 7.8503 15.1632 8.38937C12.3835 8.80186 10.621 10.4612 8.50694 12.6972C4.43819 16.9956 1.75226 22.7565 1.00226 28.8081C0.781947 30.5753 0.781946 32.5581 1.86945 33.9175C3.06007 35.4034 5.12726 35.619 6.95538 35.5112C16.1054 34.9534 22.7429 28.0862 23.4694 27.2659C25.6913 24.7534 27.346 22.8831 27.5335 19.9628C27.8804 14.5628 22.8694 10.8128 22.4288 10.4941L22.4241 10.4847Z" fill="#D27022"/>
<path d="M17.0378 23.877C17.066 23.9145 17.0988 23.9473 17.1269 23.9848C17.1269 23.9848 17.2675 24.1582 17.1972 24.0692C17.1316 23.9895 17.2394 24.1207 17.2488 24.1348C17.2816 24.1817 17.3144 24.2238 17.3472 24.2707C17.5113 24.5004 17.666 24.7348 17.8113 24.9785C18.1394 25.5317 18.4066 26.1082 18.6035 26.7223C18.9644 27.8426 19.0863 28.8973 19.0113 30.0832C18.9785 30.5707 19.4519 30.9879 19.916 30.9879C20.4316 30.9879 20.7925 30.5707 20.8206 30.0832C20.9941 27.3551 20.0566 24.6832 18.3175 22.5926C18.0035 22.2176 17.3613 22.2692 17.0378 22.5926C16.6675 22.9629 16.7238 23.4973 17.0378 23.8723V23.877Z" fill="#A34923"/>
<path d="M30.7489 8.45963C29.0239 9.95494 26.9989 11.0799 24.8239 11.7643C24.1067 11.9893 24.4114 13.1237 25.1332 12.894C27.5098 12.144 29.6942 10.9159 31.5739 9.28931C32.1457 8.79244 31.3114 7.96744 30.7442 8.45963H30.7489Z" fill="#014324"/>
<path d="M13.0115 27.505C13.1568 27.6503 13.2974 27.7956 13.4287 27.955C13.4427 27.9691 13.5693 28.1284 13.5083 28.0534C13.4568 27.9878 13.5599 28.1191 13.5646 28.1331C13.6443 28.2409 13.7193 28.3534 13.7943 28.4706C14.1412 29.0191 14.3662 29.5581 14.5115 30.1909C14.624 30.6972 14.6615 31.1941 14.624 31.7753C14.6146 31.8925 14.6052 32.0097 14.5958 32.1269C14.5865 32.2347 14.5865 32.1784 14.5958 32.1034C14.5865 32.155 14.5771 32.2113 14.5724 32.2628C14.5443 32.4269 14.5115 32.5863 14.4693 32.7456C14.3568 33.205 14.6146 33.6972 15.0833 33.8284C15.5521 33.9597 16.049 33.6784 16.1661 33.2144C16.7755 30.7253 16.0818 28.0816 14.2536 26.2675C13.4474 25.4706 12.2052 26.7128 13.0115 27.5097V27.505Z" fill="#A34923"/>
<path d="M22.8693 9.72543C20.6662 8.13168 17.9943 7.14731 15.2474 7.49887C11.8162 7.93481 9.29429 10.4145 7.1193 12.9129C4.77555 15.6129 2.97086 18.7301 1.73336 22.0817C1.10524 23.7785 0.636487 25.5317 0.336487 27.3176C0.0364871 29.1035 -0.197887 30.8426 0.247425 32.5489C0.692737 34.2551 1.89274 35.4832 3.53336 36.0317C5.06148 36.5426 6.75836 36.4488 8.33336 36.2426C11.4787 35.8348 14.4927 34.7426 17.249 33.1864C21.0365 31.0442 24.6271 27.9739 26.9755 24.2707C28.724 21.5098 28.8083 18.2192 27.4865 15.2707C26.6005 13.2973 25.1333 11.5348 23.4599 10.1754C23.2677 10.0207 23.0708 9.86606 22.8693 9.72075C22.4849 9.4395 21.8943 9.65981 21.6646 10.0348C21.4021 10.4754 21.599 10.9582 21.9787 11.2395C22.0255 11.2723 22.0677 11.3051 22.1146 11.3426C22.2224 11.427 21.9552 11.2161 22.0818 11.3192C22.1333 11.3614 22.1849 11.4036 22.2412 11.4457C22.513 11.6661 22.7708 11.8957 23.024 12.1348C23.7365 12.8098 24.3927 13.5457 24.9458 14.3567C26.413 16.5082 27.1537 19.1614 26.2912 21.702C25.8177 23.0989 24.8662 24.2942 23.9193 25.4051C23.4037 26.0051 22.8927 26.6098 22.3349 27.1723C21.1302 28.3817 19.7943 29.4598 18.3834 30.4207C16.2084 31.8973 13.8412 33.102 11.3146 33.8426C9.86617 34.2692 8.37554 34.5551 6.86617 34.6348C5.56305 34.7051 4.01149 34.6629 2.95211 33.7817C1.7568 32.7879 1.69117 31.077 1.7943 29.6426C1.91149 28.0254 2.24899 26.4129 2.68492 24.8567C3.55211 21.7442 4.9443 18.791 6.80523 16.152C7.73804 14.8301 8.80679 13.6254 9.94117 12.477C10.9677 11.4411 12.0552 10.4426 13.3912 9.81918C15.9224 8.63325 18.824 9.22387 21.1162 10.6536C21.4115 10.8411 21.7021 11.0379 21.9833 11.2442C22.3724 11.5254 22.9583 11.3098 23.188 10.9301C23.4505 10.4895 23.2537 10.0067 22.874 9.72543H22.8693Z" fill="#561D11"/>
</svg>
