<svg width="144" height="192" viewBox="0 0 144 192" fill="none" xmlns="http://www.w3.org/2000/svg">
<g clip-path="url(#clip0_1064_3365)">
<path d="M138.904 0H75.0958C72.2815 0 70 2.26686 70 5.06318V182.937C70 185.733 72.2815 188 75.0958 188H138.904C141.719 188 144 185.733 144 182.937V5.06318C144 2.26686 141.719 0 138.904 0Z" fill="#999899"/>
<path d="M129.602 32.4553H84.4961C82.531 32.4553 80.938 34.0559 80.938 36.0302V120.025C80.938 122 82.531 123.6 84.4961 123.6H129.602C131.567 123.6 133.161 122 133.161 120.025V36.0302C133.161 34.0559 131.567 32.4553 129.602 32.4553Z" fill="#E2E2E1"/>
<path d="M117.872 77.1351C116.948 89.5982 109.293 105.432 102.69 104.682C94.5727 103.766 92.9102 78.3537 92.8381 77.1351C92.308 68.1745 94.2122 65.0001 96.0697 63.3C99.2461 60.3856 103.737 60.4452 105.035 60.458C106.07 60.4708 111.358 60.5389 114.887 64.2715C118.47 68.0594 118.152 73.4068 117.876 77.1309L117.872 77.1351Z" fill="#999899"/>
<path d="M105.717 62.7716C105.314 62.7716 104.912 68.1062 104.504 68.1062C100.208 60.9777 99.5129 53.3507 103.05 48.6339C105.416 45.4809 109.992 37.8667 111.773 39.162C113.949 40.7428 111.714 47.4878 109.958 52.7926C108.521 57.1387 106.888 60.5474 105.717 62.7716Z" fill="#999899"/>
<path d="M106.434 62.2944L105.302 61.8598C103.207 55.281 104.611 49.6438 109.182 47.5858C112.24 46.2095 117.13 46.2436 118.44 47.7946C120.043 49.6907 116.146 53.6533 113.076 56.768C110.561 59.3203 108.122 61.1439 106.43 62.2944H106.434Z" fill="#999899"/>
<path d="M102.265 62.9804L103.355 63.4661C103.945 61.3996 105.018 56.4783 102.63 51.6592C101.689 49.7631 99.5978 46.6441 98.2704 47.0361C97.9184 47.1384 95.0897 49.6182 97.9056 57.0151C99.0337 59.9765 100.976 61.9109 102.265 62.9804Z" fill="#999899"/>
<path d="M108.894 72.2646C109.971 72.9251 110.51 73.9946 110.51 75.4773C110.51 76.2571 110.353 76.9814 110.048 77.6547C109.738 78.3236 109.369 78.9159 108.941 79.4272C108.512 79.9385 107.94 80.5435 107.223 81.2423C106.328 82.1243 105.671 82.8487 105.251 83.4154C104.831 83.9821 104.624 84.6212 104.624 85.32C104.543 85.401 104.39 85.4649 104.161 85.516C103.932 85.5671 103.716 85.5884 103.521 85.5884C103.042 85.5884 102.69 85.4691 102.461 85.2263C102.232 84.9877 102.117 84.6255 102.117 84.144C102.117 83.6625 102.278 83.1555 102.596 82.674C102.914 82.1925 103.432 81.5321 104.149 80.6927C105.043 79.6743 105.73 78.771 106.21 77.9913C106.685 77.2115 106.926 76.3721 106.926 75.4688C106.926 74.7487 106.735 74.1692 106.345 73.7304C105.955 73.2915 105.361 73.0699 104.568 73.0699C103.869 73.0699 103.313 73.2404 102.897 73.5812C102.478 73.9221 102.27 74.4419 102.27 75.1407C102.27 75.5029 102.359 75.9886 102.537 76.6107C102.236 76.8323 101.799 76.9388 101.222 76.9388C100.467 76.9388 99.8652 76.7513 99.4157 76.3679C98.9704 75.9886 98.7456 75.4262 98.7456 74.6891C98.7456 73.4278 99.3393 72.5416 100.535 72.0345C101.727 71.5232 103.105 71.2676 104.657 71.2676C106.409 71.2676 107.821 71.5999 108.898 72.2561L108.894 72.2646ZM105.103 88.9801C105.501 89.2997 105.701 89.7598 105.701 90.3606C105.701 90.9614 105.489 91.4557 105.056 91.7838C104.628 92.1119 104.085 92.278 103.432 92.278C102.779 92.278 102.244 92.1161 101.85 91.7966C101.451 91.477 101.252 91.0168 101.252 90.416C101.252 89.8152 101.464 89.321 101.892 88.9886C102.321 88.6605 102.864 88.4944 103.521 88.4944C104.178 88.4944 104.704 88.6563 105.103 88.9758V88.9801Z" fill="#E2E2E1"/>
<path d="M105.693 113.614L105.137 113.557C104.317 113.473 103.721 112.741 103.804 111.922L104.614 103.97L108.138 104.329L107.328 112.281C107.244 113.101 106.512 113.697 105.693 113.614Z" fill="#222222"/>
<path d="M114.237 86.8657C118.147 90.8929 118.052 97.3267 114.026 101.237C109.999 105.146 103.565 105.052 99.6549 101.025C95.7451 96.9991 95.8396 90.5645 99.8659 86.6547C103.892 82.7449 110.326 82.8386 114.237 86.8657ZM115.035 86.0903C110.704 81.6295 103.551 81.5237 99.0897 85.8553C94.6289 90.187 94.5239 97.3394 98.8555 101.8C103.187 106.261 110.34 106.366 114.8 102.034C119.261 97.7026 119.367 90.5511 115.035 86.0903Z" fill="#222222" stroke="#222222"/>
<path d="M20.7208 102.683C20.6445 103.335 20.547 104.034 20.4282 104.779C20.5046 104.076 20.6021 103.373 20.7208 102.683Z" fill="#C9C9C9"/>
<path d="M59.4997 190.935C57.7906 190.935 56.0603 190.905 54.3513 190.845C54.118 190.845 27.6505 189.78 15.4409 180.832C15.0677 180.559 14.7624 180.321 14.7624 180.321C11.6199 177.867 4.07531 170.981 1.75977 160.026C-1.0265 146.864 5.25004 135.309 7.61222 130.958C8.88026 128.628 10.0041 127 11.094 125.428C12.6504 123.182 14.122 121.06 15.7929 117.111C17.4554 113.182 18.6555 109.019 19.3595 104.724V104.626L19.3892 104.532C19.4995 103.825 19.5928 103.165 19.6649 102.555L19.6734 102.491C19.7073 102.291 19.7455 102.095 19.7836 101.895C23.1339 84.0588 38.7362 71.1057 56.8746 71.1057C57.2436 71.1057 57.6125 71.11 57.9815 71.1228C63.448 71.2804 68.6855 72.5757 73.5456 74.9746C77.0147 76.2784 80.4752 78.5921 83.8213 81.8474C86.2895 84.2463 88.4778 87.3397 90.5092 91.3023C94.7205 99.5131 96.7688 108.687 97.7612 115.926C98.5161 114.805 99.5805 113.681 101.073 112.854C101.637 112.539 103.139 111.708 105.068 111.708C105.221 111.708 105.374 111.712 105.531 111.725C109.572 112.002 112.38 115.709 113.202 117.98C115.128 123.297 110.34 130.814 101.777 136.046C101.93 136.83 102.07 137.622 102.189 138.411C103.283 145.518 105.721 169.698 91.2217 182.502C84.6059 188.348 76.6075 190.07 71.0689 190.487C67.2182 190.786 63.3208 190.939 59.4912 190.939L59.4997 190.935Z" fill="url(#paint0_linear_1064_3365)"/>
<path d="M56.879 72.1751C57.2394 72.1751 57.5957 72.1794 57.9562 72.1922C63.4057 72.3498 68.5415 73.6877 73.1301 75.9588C76.9427 77.3819 80.2972 79.9001 83.092 82.6186C84.7078 84.1866 87.0403 86.8539 89.5764 91.7965C94.9369 102.244 96.5908 114.043 97.1676 119.901C97.3542 119.122 98.2829 115.628 101.591 113.787C102.176 113.463 103.453 112.773 105.073 112.773C105.2 112.773 105.331 112.777 105.463 112.786C108.868 113.02 111.455 116.258 112.21 118.342C113.898 123.012 109.466 130.328 100.594 135.513C100.747 136.255 100.955 137.303 101.146 138.568C101.782 142.701 105.522 168.454 90.5263 181.697C84.2879 187.206 76.7815 188.983 70.9927 189.418C66.6458 189.754 62.7738 189.865 59.4956 189.865C57.5787 189.865 55.8696 189.827 54.3853 189.776C54.3853 189.776 27.9984 188.715 16.0645 179.967C15.704 179.703 15.4071 179.473 15.4071 179.473C12.9432 177.547 5.13989 170.896 2.79467 159.8C0.0889672 147.018 6.19587 135.782 8.54534 131.457C11.603 125.828 13.8931 124.32 16.7685 117.524C18.8083 112.709 19.8558 108.282 20.4199 104.809C20.4199 104.797 20.4199 104.788 20.4241 104.775C20.5429 104.03 20.6404 103.331 20.7167 102.679C20.7507 102.487 20.7846 102.295 20.8228 102.104C24.0416 84.9834 39.0502 72.1709 56.8747 72.1709M56.879 70.0447C38.2317 70.0447 22.1968 83.36 18.7447 101.703C18.7066 101.903 18.6684 102.108 18.6345 102.308L18.6217 102.368L18.6133 102.432C18.5412 103.032 18.4521 103.689 18.3418 104.379C18.3291 104.434 18.3206 104.49 18.3164 104.545C17.6251 108.755 16.4504 112.841 14.8176 116.689C13.1891 120.536 11.7515 122.616 10.2247 124.814C9.11786 126.412 7.97281 128.061 6.68358 130.439C4.26626 134.887 -2.14599 146.694 0.720862 160.248C3.10849 171.543 10.8778 178.633 14.1052 181.16C14.1136 181.164 14.4275 181.412 14.8134 181.693C26.9509 190.585 52.7271 191.847 54.309 191.91C56.0265 191.97 57.7696 192.004 59.4956 192.004C63.3506 192.004 67.2734 191.851 71.1581 191.548C76.8579 191.122 85.0895 189.341 91.9301 183.303C98.6604 177.359 102.66 168.488 103.813 156.933C104.407 150.985 104.212 144.521 103.245 138.249C103.16 137.691 103.062 137.128 102.961 136.566C106.892 134.065 110.047 131.095 112.134 127.908C114.543 124.235 115.276 120.579 114.203 117.613C113.292 115.091 110.149 110.971 105.607 110.659C105.429 110.647 105.251 110.642 105.073 110.642C102.867 110.642 101.192 111.571 100.565 111.921C99.7588 112.368 99.0633 112.892 98.4695 113.455C97.3584 106.548 95.2931 98.2944 91.4551 90.8165C89.3686 86.7474 87.1124 83.5645 84.5594 81.0846C81.12 77.7441 77.5576 75.358 73.9656 73.9988C68.9783 71.5488 63.6135 70.2236 58.0113 70.0617C57.6338 70.0489 57.2522 70.0447 56.8747 70.0447H56.879Z" fill="#004D2A"/>
<path d="M50.2078 77.284C48.609 77.284 47.1289 76.8366 46.0432 76.0228C44.6013 74.9448 44.033 72.6183 43.0025 68.4001C42.0822 64.6334 41.62 62.7416 42.2349 61.4506C43.2654 59.2903 46.251 57.897 49.8346 57.897C52.1841 57.897 54.3342 58.5148 55.7337 59.5885C56.0645 59.8442 56.9424 60.5174 57.5403 61.7403C58.3843 63.466 58.0832 65.1618 57.816 66.6531C56.654 73.1936 56.3868 74.5144 55.9585 74.9789C54.6268 76.4191 52.4767 77.2798 50.2078 77.2798V77.284Z" fill="#9AB954"/>
<path d="M49.8348 58.5361C51.9255 58.5361 53.9951 59.0559 55.3479 60.0956C55.6406 60.3214 56.4421 60.935 56.9722 62.0215C57.7101 63.5298 57.4684 65.0041 57.1927 66.5423C56.2894 71.6341 55.8272 74.1863 55.4964 74.5442C54.2368 75.9077 52.1885 76.6449 50.208 76.6449C48.8127 76.6449 47.4514 76.2784 46.4208 75.5115C45.1867 74.5869 44.6481 72.4649 43.6176 68.2509C42.7312 64.6249 42.2987 62.7927 42.8076 61.7317C43.8254 59.6056 46.8492 58.5403 49.8348 58.5403M49.8348 57.2578C46.7898 57.2578 43.0451 58.2847 41.6625 61.1736C40.9458 62.6691 41.4293 64.6377 42.3835 68.5534C43.4522 72.9166 44.0374 75.3197 45.6617 76.5341C46.8576 77.4289 48.4734 77.9231 50.208 77.9231C52.6507 77.9231 54.9747 76.9857 56.4251 75.4177C56.9807 74.8169 57.197 73.7688 58.4396 66.7681C58.7067 65.2555 59.0418 63.3765 58.1088 61.4591C57.4472 60.0998 56.4463 59.3329 56.1155 59.0815C54.6058 57.9225 52.3157 57.2578 49.8305 57.2578H49.8348Z" fill="#004D2A"/>
<path d="M20.8272 102.108C20.789 102.3 20.7551 102.491 20.7212 102.683C20.7509 102.483 20.7721 102.287 20.7933 102.095C20.806 102.095 20.8145 102.104 20.8272 102.108Z" fill="#C9C9C9"/>
<path d="M94.4622 134.452C92.9821 133.021 93.1306 130.78 93.1772 130C93.2535 128.666 93.6607 127.886 94.8608 125.321C97.0916 120.57 96.659 121.184 97.2103 120.2C99.335 116.399 101.006 113.408 103.996 112.892C107.278 112.33 110.035 115.121 110.294 115.385C112.363 117.537 112.567 120.17 112.601 120.818C112.808 125.113 109.611 128.189 106.748 130.929C104.84 132.757 101.489 135.965 97.4944 135.637C96.8541 135.586 95.5055 135.454 94.4664 134.448L94.4622 134.452Z" fill="url(#paint1_linear_1064_3365)"/>
<path d="M84.8288 102.814C83.6541 102.814 81.9747 102.554 80.6388 101.315C79.7397 100.479 79.2054 99.5207 79.0485 98.4598C78.8619 97.2028 79.2648 96.2313 79.4005 95.9117C80.5201 93.2231 83.6626 92.0002 86.1096 92.0002C86.2114 92.0002 86.3131 92.0002 86.4107 92.0045C87.2886 92.0386 88.9213 92.1068 90.2784 93.3978C91.5083 94.5696 92.102 96.4103 91.7839 98.0933C91.1944 101.217 87.8059 102.486 85.9018 102.742C85.7533 102.763 85.3589 102.814 84.8331 102.814H84.8288Z" fill="#EAF2D0"/>
<path d="M85.959 92.7046C86.048 92.7046 86.1371 92.7046 86.2261 92.7089C87.0234 92.743 88.4187 92.7983 89.5468 93.8678C90.624 94.8904 91.0523 96.4542 90.8021 97.7836C90.3186 100.349 87.4094 101.508 85.6409 101.746C85.5052 101.763 85.1532 101.81 84.6824 101.81C83.7113 101.81 82.227 101.61 81.0692 100.536C80.7978 100.285 79.9369 99.4837 79.7418 98.1798C79.5934 97.1785 79.9114 96.3903 80.0387 96.0877C80.9292 93.9488 83.5883 92.7003 85.9674 92.7003M85.959 91.0002C83.2405 91.0002 79.7376 92.3893 78.4653 95.4358C78.0454 96.4371 77.9097 97.447 78.0582 98.4398C78.2448 99.6967 78.8682 100.826 79.9114 101.793C81.4509 103.22 83.3508 103.519 84.6782 103.519C85.2635 103.519 85.696 103.459 85.8614 103.438C87.9946 103.152 91.786 101.708 92.4645 98.1032C92.8335 96.1431 92.1465 93.9957 90.7088 92.6322C89.1184 91.1238 87.21 91.0471 86.294 91.0088C86.1837 91.0045 86.0735 91.0002 85.959 91.0002Z" fill="#004D2A"/>
<path d="M92.825 95.5377C93.2958 97.8087 92.1677 99.8838 90.3102 100.169C88.4526 100.455 86.5612 98.8441 86.0947 96.5731C85.624 94.302 86.752 92.227 88.6096 91.9415C90.4671 91.656 92.3585 93.2666 92.825 95.5377Z" fill="#004D2A"/>
<path d="M69.7459 109.479C71.2514 110.557 73.0623 111.205 74.8944 111.388C77.4898 111.644 80.0301 110.698 82.0021 109.028C82.4389 108.657 82.3838 107.903 82.0021 107.519C81.5696 107.085 80.9419 107.149 80.5009 107.519C79.9835 107.954 79.1226 108.516 78.3253 108.81C77.1929 109.232 75.997 109.39 74.7968 109.245C73.3252 109.07 72.0106 108.495 70.8146 107.639C70.3481 107.306 69.6356 107.558 69.3642 108.022C69.0546 108.559 69.2752 109.143 69.7459 109.479Z" fill="#004D2A"/>
<path d="M80.2336 108.559C80.8188 110.302 81.7773 111.942 83.1174 113.212C84.9707 114.972 87.4431 115.922 89.9792 116.02C92.5152 116.118 94.8689 115.364 96.6544 113.698C98.0157 112.424 98.9657 110.694 99.1692 108.827C99.4237 106.48 98.3041 104.098 96.4805 102.645C96.031 102.287 95.4203 102.206 94.9792 102.645C94.6103 103.015 94.5297 103.791 94.9792 104.153C96.1412 105.082 97.0148 106.369 97.0827 107.941C97.1209 108.87 96.8876 109.756 96.4381 110.562C96.3405 110.736 96.2388 110.907 96.1285 111.069C96.0861 111.128 95.8147 111.495 95.9249 111.358C95.7595 111.567 95.5814 111.767 95.3948 111.955C92.7358 114.669 87.9181 114.422 85.0809 112.121C84.2794 111.469 83.6136 110.668 83.0919 109.778C82.8757 109.407 82.6848 109.023 82.5109 108.631C82.6 108.832 82.4261 108.418 82.4007 108.35C82.3583 108.235 82.3159 108.116 82.2777 107.996C81.8451 106.705 79.7968 107.259 80.2336 108.563V108.559Z" fill="#004D2A"/>
<path d="M94.1778 103.058C96.2813 103.727 97.8504 106.974 97.0531 109.671C96.188 112.611 92.9182 113.523 92.1845 113.728C91.7392 113.851 88.7706 114.627 85.9334 112.837C83.9572 111.589 81.7222 108.891 82.3923 106.889C82.6764 106.037 83.2744 105.96 91.4085 103.386C92.6044 103.007 93.3169 102.781 94.1735 103.054L94.1778 103.058Z" fill="#80B93C"/>
</g>
<defs>
<linearGradient id="paint0_linear_1064_3365" x1="57.3453" y1="63.5213" x2="57.3453" y2="181.352" gradientUnits="userSpaceOnUse">
<stop offset="0.05" stop-color="#63B12E"/>
<stop offset="1" stop-color="#B2C562"/>
</linearGradient>
<linearGradient id="paint1_linear_1064_3365" x1="111.985" y1="114.902" x2="94.4947" y2="131.642" gradientUnits="userSpaceOnUse">
<stop offset="0.05" stop-color="#63B12E"/>
<stop offset="1" stop-color="#9AB954"/>
</linearGradient>
<clipPath id="clip0_1064_3365">
<rect width="144" height="192" fill="white"/>
</clipPath>
</defs>
</svg>
