<svg width="35" height="38" viewBox="0 0 35 38" fill="none" xmlns="http://www.w3.org/2000/svg">
<path fill-rule="evenodd" clip-rule="evenodd" d="M33.2313 29.8801C33.2313 33.2411 30.3611 35.9824 26.8464 35.9824H8.65338C5.1387 35.9824 2.25855 33.2361 2.25855 29.8801C2.24863 29.1514 2.24863 21.7105 8.65338 17.2689C8.77235 17.1895 8.88637 17.1102 9.00534 17.0309C10.438 16.094 11.0031 14.3292 10.3537 12.7974C9.972 11.8952 9.75884 10.9038 9.75884 9.87267C9.75884 5.43595 13.6354 1.87169 18.32 2.09477C22.3254 2.2881 25.6517 5.33184 26.0136 9.14891C26.1375 10.4576 25.9194 11.7068 25.4386 12.8272C24.7594 14.4036 25.2552 16.1931 26.7076 17.1796C26.7522 17.2094 26.7969 17.2391 26.8415 17.2738C33.2413 21.7205 33.2413 29.1563 33.2264 29.885L33.2313 29.8801Z" fill="#D8D8D8"/>
<path fill-rule="evenodd" clip-rule="evenodd" d="M32.9735 29.7957C32.9735 33.1567 30.1033 35.8981 26.5886 35.8981H8.39557C4.88089 35.8981 2.00074 33.1518 2.00074 29.7957C1.99082 29.067 1.99082 21.6262 8.39557 17.1845C9.02514 16.7483 9.67949 16.3616 10.3586 16.0295C11.1022 15.6676 11.3253 14.7555 10.8643 14.0962C9.82325 12.604 9.3077 10.7451 9.56548 8.7721C10.0315 5.2475 13.0504 2.41692 16.7485 2.04513C21.6512 1.54941 25.7855 5.20289 25.7855 9.78833C25.7855 11.4341 25.2502 12.9659 24.3331 14.2201C23.8621 14.8695 24.105 15.7717 24.8338 16.1435C25.4336 16.4509 26.0185 16.7979 26.5787 17.1895C32.9785 21.6361 32.9785 29.072 32.9636 29.8007L32.9735 29.7957Z" stroke="#999899" stroke-width="2.5" stroke-miterlimit="10"/>
</svg>
