<svg width="90" height="90" viewBox="0 0 90 90" fill="none" xmlns="http://www.w3.org/2000/svg">
<g clip-path="url(#clip0_265_5900)">
<rect width="90" height="90" rx="45" fill="#DBF4C8"/>
<path d="M56.7878 26.808C53.7947 23.5764 49.6142 21.7969 44.9999 21.7969C40.361 21.7969 36.1667 23.5657 33.1874 26.7772C30.1758 30.0241 28.7085 34.4369 29.053 39.2019C29.7359 48.6026 36.8896 56.25 44.9999 56.25C53.1102 56.25 60.2516 48.6042 60.9452 39.2049C61.2944 34.483 59.8178 30.0795 56.7878 26.808Z" fill="#377D00"/>
<path d="M72.0712 90.7031H17.9306C17.2219 90.7123 16.5201 90.5635 15.8762 90.2673C15.2324 89.9712 14.6626 89.5353 14.2084 88.9912C13.2086 87.7961 12.8057 86.1642 13.1041 84.5139C14.4022 77.3126 18.4535 71.2633 24.8212 67.0166C30.4783 63.2468 37.6442 61.1719 45.0009 61.1719C52.3575 61.1719 59.5235 63.2483 65.1806 67.0166C71.5482 71.2617 75.5996 77.311 76.8977 84.5123C77.1961 86.1627 76.7931 87.7946 75.7934 88.9897C75.3393 89.534 74.7696 89.9702 74.1257 90.2666C73.4818 90.563 72.78 90.7122 72.0712 90.7031Z" fill="#377D00"/>
</g>
<rect x="0.5" y="0.5" width="89" height="89" rx="44.5" stroke="#DBF4C8"/>
<defs>
<clipPath id="clip0_265_5900">
<rect width="90" height="90" rx="45" fill="white"/>
</clipPath>
</defs>
</svg>
