<svg width="31" height="37" viewBox="0 0 31 37" fill="none" xmlns="http://www.w3.org/2000/svg">
<path fill-rule="evenodd" clip-rule="evenodd" d="M14.7328 10.1024C22.4562 10.2362 28.628 9.4282 29.3021 11.4805C29.3269 11.5598 29.3468 12.9528 29.3864 15.7288C29.3963 16.3584 29.4013 16.6757 29.4013 16.7748C29.4013 17.4143 29.3715 18.4157 29.203 21.7866C28.8659 28.5483 28.6974 31.934 27.4333 33.2675C26.3228 34.4325 24.568 34.72 21.0483 35.295C19.4918 35.5479 15.1096 36.1526 9.21543 35.0373C5.72553 34.378 3.98554 34.0409 3.00897 32.9602C2.12658 31.9886 1.95308 31.012 1.36812 21.5189C1.32847 20.8645 1.22436 19.1741 1.23924 16.983C1.23924 16.2692 1.25906 15.7338 1.26402 15.5504C1.33838 12.9181 1.37804 11.5995 1.5912 11.0988C2.44384 9.09111 7.55971 9.96854 14.7378 10.0925L14.7328 10.1024Z" fill="#8B9E44"/>
<path d="M14.7328 11.3417C17.1321 11.3814 19.5265 11.3268 21.9208 11.302C22.9122 11.2921 23.9087 11.2872 24.9001 11.3219C25.2917 11.3367 25.6883 11.3566 26.0799 11.3863C26.2584 11.4012 26.4368 11.4161 26.6103 11.4408C26.6153 11.4408 26.8235 11.4706 26.6946 11.4508C26.5558 11.4309 26.8582 11.4805 26.8879 11.4855C27.1656 11.535 27.4432 11.5945 27.7108 11.6838C27.8249 11.7185 28.0826 11.8523 27.8348 11.7234C27.9538 11.7879 28.0678 11.8523 28.1818 11.9217C27.8546 11.7185 28.2264 11.9217 28.1967 11.9663C28.1967 11.9663 28.0033 11.7085 28.1223 11.8771C28.1421 11.9068 28.1768 11.9614 28.1867 11.9911C28.1223 11.6838 28.0678 11.3318 28.0826 11.7978C28.1471 13.4485 28.157 15.1092 28.162 16.76C28.1768 20.1259 27.9191 23.5266 27.6811 26.8876C27.5671 28.4739 27.5076 29.7132 27.111 31.1806C27.0515 31.4036 26.9722 31.6217 26.8979 31.8399C26.8433 32.0035 26.997 31.6267 26.9276 31.7754C26.9028 31.825 26.883 31.8746 26.8582 31.9192C26.8037 32.0183 26.7491 32.1175 26.6946 32.2166C26.6153 32.3604 26.5162 32.4347 26.6847 32.2513C26.6153 32.3257 26.5509 32.405 26.4765 32.4794C26.4319 32.524 26.1196 32.7817 26.3228 32.633C26.1741 32.7421 26.0204 32.8363 25.8568 32.9255C25.5297 33.104 25.5594 33.0841 25.138 33.2229C24.7663 33.3419 24.3895 33.4361 24.0078 33.5253C22.9222 33.7682 21.8167 33.9417 20.7162 34.1152C20.5129 34.1499 20.3097 34.1797 20.1065 34.2094C19.9032 34.2392 20.3147 34.1846 19.9528 34.2293C19.7892 34.2491 19.6206 34.2689 19.4571 34.2887C18.6936 34.3681 17.9302 34.4226 17.1668 34.4474C15.0203 34.5168 12.859 34.3978 10.7323 34.0657C8.78909 33.7633 6.66243 33.4857 4.8233 32.747C5.00176 32.8214 4.65971 32.6677 4.59527 32.633C4.47134 32.5686 4.35236 32.4942 4.23339 32.4199C4.0698 32.3207 4.31766 32.5339 4.08963 32.3108C4.01031 32.2315 3.931 32.1472 3.85168 32.0679C3.82194 32.0382 3.79715 31.9935 3.76741 31.9688C3.63356 31.8547 3.94091 32.2464 3.8616 32.0877C3.81698 32.0035 3.75254 31.9241 3.70297 31.8448C3.59391 31.6565 3.59391 31.5177 3.67818 31.83C3.64844 31.711 3.58895 31.592 3.55425 31.4681C3.46006 31.1558 3.39562 30.8286 3.34109 30.5064C3.3163 30.3725 3.23699 29.7777 3.2816 30.1197C3.24194 29.8272 3.2122 29.5348 3.1775 29.2423C3.1081 28.5631 3.04861 27.879 2.99408 27.1999C2.83545 25.1773 2.70656 23.1548 2.59255 21.1322C2.47853 19.1097 2.46366 17.1912 2.51819 15.2183C2.54793 14.2466 2.5628 13.2701 2.63716 12.2984C2.64707 12.1497 2.66195 12.001 2.67682 11.8523C2.64707 12.115 2.67682 11.8622 2.7016 11.7532C2.72143 11.6689 2.75118 11.5896 2.77101 11.5053C2.77101 11.5202 2.63716 11.8126 2.72639 11.6243C2.74622 11.5796 2.87511 11.4061 2.74622 11.5747C2.57272 11.8027 2.98912 11.3615 2.77596 11.54C2.62229 11.6738 2.89494 11.4706 2.93955 11.4458C2.98417 11.4161 3.0387 11.3962 3.08827 11.3714C3.23699 11.2971 2.87015 11.4458 3.03374 11.3962C3.17254 11.3516 3.30639 11.307 3.44519 11.2723C3.58399 11.2376 3.71784 11.2128 3.85664 11.188C3.931 11.1732 4.00536 11.1632 4.07971 11.1533C4.02519 11.1632 3.84672 11.1781 4.09954 11.1533C4.47134 11.1137 4.84313 11.0938 5.21492 11.079C7.15816 11.0195 9.11131 11.1583 11.0545 11.2426C12.2839 11.2971 13.5133 11.3417 14.7427 11.3615C16.339 11.3913 16.339 8.91266 14.7427 8.88291C12.2988 8.8383 9.85985 8.68463 7.41593 8.61027C5.82466 8.5607 4.04997 8.46155 2.51323 8.96223C1.11033 9.4183 0.381618 10.3651 0.208115 11.8077C-0.029832 13.8253 -0.00504586 15.9222 0.00982584 17.9497C0.0445265 21.8114 0.302303 25.7226 0.733582 29.5595C0.902128 31.0814 1.06076 32.6677 2.13152 33.8525C3.20228 35.0373 4.94227 35.4537 6.45919 35.7809C9.01216 36.3311 11.5949 36.7723 14.2073 36.9062C17.8013 37.0945 21.4895 36.7079 24.9893 35.8552C26.4567 35.4983 27.9339 34.8787 28.7915 33.5699C29.4657 32.5438 29.6937 31.245 29.8573 30.0503C30.1449 27.9683 30.249 25.8614 30.358 23.7645C30.4671 21.6676 30.5811 19.6946 30.6406 17.6622C30.6852 16.1651 30.6257 14.668 30.6059 13.1709C30.596 12.6355 30.6059 12.0902 30.5662 11.5598C30.5067 10.8361 30.0903 10.2561 29.5103 9.84462C28.3602 9.02667 26.7343 8.95232 25.376 8.88787C23.17 8.77881 20.9591 8.86804 18.7531 8.89283C17.4196 8.9077 16.0812 8.91266 14.7477 8.89283C13.1515 8.86804 13.1515 11.3467 14.7477 11.3714L14.7328 11.3417Z" fill="#387A38"/>
<path d="M23.9335 9.91891C24.1665 6.17619 22.0497 2.32442 18.5598 0.817422C14.8369 -0.793679 10.5291 0.336567 8.06536 3.54886C6.75665 5.25414 6.06263 7.40063 6.10725 9.55207C6.14195 11.1433 8.62057 11.1483 8.58587 9.55207C8.51151 5.82423 11.3421 2.45827 15.1939 2.55245C19.0456 2.64664 21.6829 6.22576 21.4499 9.92386C21.3507 11.5151 23.8294 11.5102 23.9285 9.92386L23.9335 9.91891Z" fill="#387A38"/>
<path d="M8.31816 9.62647C8.05543 5.8094 11.0893 2.62686 14.8865 2.54754C18.6837 2.46823 21.9208 5.43761 21.8415 9.28938C21.8068 10.8856 24.2854 10.8856 24.3201 9.28938C24.3994 5.41282 21.8465 1.87336 18.2128 0.589438C14.5791 -0.694485 10.0631 0.520036 7.64398 3.70258C6.36997 5.38308 5.69083 7.51469 5.83954 9.62647C5.88416 10.2957 6.37493 10.8658 7.07885 10.8658C7.71338 10.8658 8.36278 10.2957 8.31816 9.62647Z" fill="#387A38"/>
</svg>
