<svg width="35" height="43" viewBox="0 0 35 43" fill="none" xmlns="http://www.w3.org/2000/svg">
<path d="M13.8984 41.3788C15.3247 40.1308 11.5539 35.843 9.82456 25.5825C8.57655 18.1836 9.58387 14.7872 8.41609 14.4752C6.33013 13.9225 -1.1936 23.666 1.62334 32.2148C3.90542 39.1235 12.169 42.8853 13.8895 41.3788H13.8984Z" fill="#95A746"/>
<path d="M13.8984 41.3788C15.3247 40.1308 11.5539 35.843 9.82456 25.5825C8.57655 18.1836 9.58387 14.7872 8.41609 14.4752C6.33013 13.9225 -1.1936 23.666 1.62334 32.2148C3.90542 39.1235 12.169 42.8853 13.8895 41.3788H13.8984Z" stroke="#3B6431" stroke-miterlimit="10"/>
<path d="M28.7321 5.8818C28.429 3.84932 26.4768 1.87033 25.2288 2.25365C24.0788 2.60131 23.4637 4.99928 24.1858 6.57712C24.5958 7.47747 25.3892 8.01233 26.138 8.52937C26.7977 8.984 27.1899 9.25143 27.5911 9.15337C28.4558 8.93943 28.9282 7.22787 28.7321 5.8818Z" fill="#C08A47" stroke="#6C3D1D" stroke-width="0.86" stroke-miterlimit="10"/>
<path d="M26.5659 9.29601C26.0934 7.04959 23.6063 5.12408 22.4564 5.66786C21.4223 6.15815 21.2351 8.72549 22.2068 10.2944C22.7506 11.1769 23.6242 11.6851 24.2392 12.0505C24.9167 12.4428 25.309 12.6746 25.6923 12.5498C26.5124 12.2823 26.8333 10.5797 26.5659 9.29601Z" fill="#C08A47" stroke="#6C3D1D" stroke-miterlimit="10"/>
<path d="M25.0592 14.9923C24.6402 11.685 21.2706 8.60958 19.5323 9.26033C17.9722 9.84867 17.4106 13.5392 18.6319 15.9372C19.3183 17.2833 20.5128 18.1212 21.3775 18.7185C22.3135 19.3692 22.8484 19.7436 23.4278 19.6099C24.6402 19.3157 25.3088 16.8821 25.0681 15.0012L25.0592 14.9923Z" fill="#C08A47" stroke="#6C3D1D" stroke-width="1.2" stroke-miterlimit="10"/>
<path d="M28.536 5.62328C30.5596 4.68727 33.4924 5.52522 33.742 6.73757C33.956 7.82513 32.0661 9.44754 30.2743 9.608C29.267 9.69714 28.3756 9.30491 27.7337 9.02857C27.0384 8.72548 26.6283 8.5561 26.5035 8.1817C26.245 7.38832 27.3861 6.15814 28.5449 5.62328H28.536Z" fill="#C08A47" stroke="#6C3D1D" stroke-width="0.82" stroke-miterlimit="10"/>
<path d="M26.2714 9.57233C28.4376 7.98557 32.1103 8.27083 32.6898 9.64364C33.2068 10.8827 31.3526 13.254 29.2755 13.8601C28.1078 14.1989 26.9578 13.9582 26.1288 13.7888C25.2284 13.6016 24.7114 13.4947 24.4707 13.0757C23.9715 12.2021 25.0323 10.4638 26.2625 9.56341L26.2714 9.57233Z" fill="#C08A47" stroke="#6C3D1D" stroke-miterlimit="10"/>
<path d="M23.8735 14.9833C26.4765 12.8974 31.0407 13.0578 31.834 14.7337C32.5472 16.2403 30.3721 19.2801 27.8226 20.1448C26.3963 20.635 24.9521 20.3944 23.9181 20.225C22.7949 20.0378 22.1441 19.9308 21.8321 19.4316C21.1635 18.3797 22.3848 16.1689 23.8735 14.9833Z" fill="#C08A47" stroke="#6C3D1D" stroke-width="1.2" stroke-miterlimit="10"/>
<path d="M21.7344 20.6083C21.2708 16.9445 17.5803 13.4768 15.5389 14.1811C13.6134 14.8496 12.8913 19.3336 14.3533 22.2931C14.5761 22.7389 15.4586 24.4058 17.3574 25.3062C18.0706 25.6449 19.0155 26.0907 19.898 25.7697C21.4669 25.1903 21.9751 22.4625 21.7433 20.5994L21.7344 20.6083Z" fill="#C08A47" stroke="#6C3D1D" stroke-width="1.3" stroke-miterlimit="10"/>
<path d="M20.7534 20.8133C23.6417 18.4421 28.7585 18.5491 29.6678 20.4122C30.4879 22.0881 28.0989 25.529 25.2552 26.5363C23.6595 27.0979 22.046 26.8573 20.8782 26.679C19.6213 26.4918 18.8903 26.3759 18.5249 25.8232C17.7671 24.6465 19.0954 22.1594 20.7445 20.8044L20.7534 20.8133Z" fill="#C08A47" stroke="#6C3D1D" stroke-width="1.3" stroke-miterlimit="10"/>
<path d="M18.2842 25.5558C17.1877 21.482 12.4542 18.1302 10.2523 19.2623C8.17529 20.3231 8.06832 25.5202 10.1899 28.6313C10.5109 29.1038 11.7767 30.8421 14.0677 31.573C14.9235 31.8405 16.0645 32.206 17.0094 31.6978C18.7032 30.7975 18.8369 27.624 18.2753 25.5558H18.2842Z" fill="#C08A47" stroke="#6C3D1D" stroke-width="1.5" stroke-miterlimit="10"/>
<path d="M19.1045 26.367C22.804 24.2186 28.5537 25.2794 29.2401 27.5526C29.8552 29.594 26.5302 33.0349 23.1427 33.65C21.235 33.9977 19.4611 33.4272 18.1774 33.0082C16.7868 32.5625 15.9845 32.3039 15.6814 31.6086C15.0395 30.1467 17.0007 27.5793 19.1045 26.3581V26.367Z" fill="#C08A47" stroke="#6C3D1D" stroke-width="1.5" stroke-miterlimit="10"/>
<path d="M13.8809 40.7192C15.2091 34.907 17.5269 29.594 20.1833 24.2989C23.1786 18.3263 26.1471 12.3269 29.1155 6.33643C29.7485 5.05276 27.8319 3.92955 27.19 5.21322C24.177 11.2839 21.1728 17.3635 18.133 23.4164C15.432 28.8006 13.0786 34.2295 11.7325 40.1308C11.4116 41.5304 13.56 42.1187 13.8809 40.7192Z" fill="#6C3D1D"/>
<path d="M30.604 5.00821C31.7539 3.85825 31.5935 1.63858 30.6664 1.13046C29.7839 0.640166 27.9653 1.58509 27.5018 3.07379C27.0917 4.3842 27.9029 5.5609 28.0188 5.72136C28.206 5.7481 29.6412 5.97096 30.604 5.01712V5.00821Z" fill="#C08A47" stroke="#6C3D1D" stroke-miterlimit="10"/>
<path d="M13.9697 41.477C14.8255 40.2557 11.1439 37.7062 7.89906 30.2181C5.55458 24.8249 5.68829 22.0436 4.74337 22.0347C3.04964 22.008 -0.837026 30.8421 2.90701 36.8148C5.9379 41.6463 12.9357 42.9568 13.9608 41.4859L13.9697 41.477Z" fill="#95A746"/>
<path d="M13.9697 41.477C14.8255 40.2557 11.1439 37.7062 7.89906 30.2181C5.55458 24.8249 5.68829 22.0436 4.74337 22.0347C3.04964 22.008 -0.837026 30.8421 2.90701 36.8148C5.9379 41.6463 12.9357 42.9568 13.9608 41.4859L13.9697 41.477Z" stroke="#3B6431" stroke-width="1.5" stroke-miterlimit="10"/>
</svg>
