<svg width="41" height="27" viewBox="0 0 41 27" fill="none" xmlns="http://www.w3.org/2000/svg">
<path d="M39.2979 16.4514C39.1228 18.6065 38.7546 23.0872 36.7118 23.6664C34.0988 24.4117 28.2442 18.8938 29.2229 13.4613C29.9727 9.31274 34.5882 5.87809 37.071 6.84339C39.9893 7.97929 39.4146 14.9788 39.2979 16.4469V16.4514Z" fill="#788EA3"/>
<path d="M31.0009 15.4141C29.9997 22.7369 18.7214 28.1021 10.3885 24.7842C4.4755 22.4316 -1.01544 15.2839 1.17555 8.70198C3.35307 2.14247 11.8387 0.113114 17.6484 1.12779C24.9038 2.3939 31.8674 9.08809 31.0009 15.4186V15.4141Z" fill="#788EA3"/>
<path d="M18.4788 7.82669C19.3723 14.4356 15.6099 20.8469 9.5218 23.4599C8.86181 23.7428 9.432 24.7126 10.0875 24.4297C13.1495 23.1142 15.776 20.829 17.4866 17.9645C19.3588 14.8307 20.0457 11.1266 19.5608 7.52587C19.4666 6.81201 18.3845 7.11731 18.4788 7.8222V7.82669Z" fill="#3F617B"/>
<path d="M30.9516 10.287C29.2724 7.12622 26.5741 4.32013 23.53 2.47036C18.9056 -0.340211 12.9881 -0.717348 7.93718 1.15936C5.29721 2.13812 2.90867 3.81279 1.47196 6.27766C-0.328425 9.38455 -0.377812 13.2323 0.785029 16.5726C1.85808 19.6526 3.89642 22.2072 6.66658 23.9268C9.43675 25.6464 12.822 26.5802 16.1938 26.4994C21.4872 26.3692 26.5561 24.0525 30.1075 20.115C30.3544 19.8411 30.5924 19.5583 30.8214 19.271C31.1087 18.9118 31.1626 18.4314 30.8214 18.0812C30.5295 17.7848 29.9144 17.7265 29.6316 18.0812C26.803 21.6056 22.7802 23.9807 18.2995 24.6407C12.6604 25.4758 6.24006 23.3297 3.3352 18.1665C1.75032 15.3514 1.15768 11.8315 2.20379 8.72905C3.04786 6.22827 4.98293 4.37401 7.32208 3.2426C11.6143 1.16385 17.1815 1.11446 21.4513 3.2426C24.7602 4.89482 27.5079 7.65152 29.3128 10.7988C29.3757 10.9111 29.4385 11.0233 29.5014 11.1356C30.0087 12.0919 31.4634 11.2433 30.956 10.287H30.9516Z" fill="#1B2242"/>
<path d="M29.4966 19.1003C30.7672 21.426 32.9896 24.4162 35.9035 24.5958C38.8173 24.7754 39.6524 21.1387 39.9622 18.8938C40.272 16.649 40.4785 14.5702 40.4111 12.4106C40.3438 10.2511 40.0834 7.52581 38.1618 6.24623C36.9361 5.4291 35.3961 5.71645 34.1435 6.29562C32.4104 7.0903 30.9513 8.49559 29.7435 9.94129C29.0521 10.7674 30.2374 11.9617 30.9333 11.1311C31.9031 9.97271 32.9986 8.87273 34.3096 8.10498C35.0908 7.64703 36.1504 7.16214 37.0573 7.54377C37.5826 7.76376 38.0047 8.45069 38.2336 9.12864C38.5344 10.0221 38.6557 10.9649 38.7095 11.9033C38.8038 13.6498 38.6646 15.3963 38.4895 17.1294C38.3683 18.3371 38.2291 19.5538 37.8924 20.7211C37.6634 21.5248 37.2998 22.6158 36.4018 22.8762C36.0875 22.966 35.7328 22.9076 35.3467 22.7819C34.8349 22.6158 34.3545 22.3105 33.928 21.9783C32.6619 20.9905 31.7145 19.6391 30.9513 18.2428C30.4305 17.291 28.9758 18.1395 29.4966 19.0914V19.1003Z" fill="#1B2242"/>
<path d="M1.15313 10.287C2.1723 11.2208 3.44739 11.8808 4.81675 12.1053C5.04573 12.1457 5.25675 12.1412 5.46328 12.02C5.63838 11.9167 5.8045 11.7192 5.84939 11.5172C5.94368 11.1131 5.72817 10.5608 5.26124 10.48C5.00981 10.4396 4.76288 10.3813 4.52043 10.3139C4.37227 10.2735 4.2286 10.2241 4.08493 10.1702C4.00411 10.1388 3.9233 10.0939 3.84248 10.076C3.89636 10.0894 3.97269 10.1343 3.8784 10.0894C3.8335 10.067 3.78412 10.0445 3.73922 10.0221C3.43392 9.87392 3.14208 9.70331 2.86372 9.51025C2.80535 9.46984 2.74699 9.42944 2.69311 9.38903C2.58985 9.3127 2.67066 9.36658 2.72454 9.41597C2.70209 9.39352 2.67515 9.37556 2.64821 9.3576C2.54495 9.2723 2.44618 9.18699 2.3474 9.0972C2.02414 8.80087 1.4719 8.75149 1.15762 9.0972C0.861299 9.42046 0.811911 9.9682 1.15762 10.287H1.15313Z" fill="#1B2242"/>
<path d="M11.5604 10.1432C12.8102 10.1432 13.8233 9.1301 13.8233 7.88038C13.8233 6.63066 12.8102 5.61755 11.5604 5.61755C10.3107 5.61755 9.29761 6.63066 9.29761 7.88038C9.29761 9.1301 10.3107 10.1432 11.5604 10.1432Z" fill="#1B2242"/>
<path d="M19.054 19.9713C18.5961 19.4999 18.1381 19.033 17.6801 18.5616C17.1414 18.0093 16.9663 17.1922 17.2267 16.4649L18.0842 14.1078C18.3671 13.3265 19.1034 12.7967 19.934 12.7788C20.6344 12.7653 21.3348 12.7474 22.0352 12.7339C23.4899 12.7025 24.5001 14.1751 23.9433 15.522C23.4135 16.7926 22.8882 18.0632 22.3585 19.3338C21.8017 20.6717 20.0642 21.004 19.054 19.9669V19.9713Z" fill="#3F617B"/>
</svg>
