<svg width="35" height="38" viewBox="0 0 35 38" fill="none" xmlns="http://www.w3.org/2000/svg">
<path fill-rule="evenodd" clip-rule="evenodd" d="M33.2313 29.9702C33.2313 33.3312 30.3611 36.0725 26.8464 36.0725H8.65338C5.1387 36.0725 2.25855 33.3262 2.25855 29.9702C2.24863 29.2414 2.24863 21.8006 8.65338 17.359C8.77235 17.2796 8.88637 17.2003 9.00534 17.121C10.438 16.1841 11.0031 14.4193 10.3537 12.8875C9.972 11.9853 9.75884 10.9939 9.75884 9.96276C9.75884 5.52603 13.6354 1.96178 18.32 2.18486C22.3254 2.37819 25.6517 5.42193 26.0136 9.239C26.088 10.0272 26.0384 10.7956 25.8847 11.5292C25.7757 12.0349 25.6964 12.0795 25.4435 12.9173C25.042 14.2508 24.8387 14.92 24.9627 15.3364C25.2254 16.2188 26.2069 16.9128 26.7126 17.2697C26.782 17.3193 26.8365 17.354 26.8464 17.3639C33.2462 21.8105 33.2462 29.2464 33.2313 29.9751V29.9702Z" fill="#8B9E44"/>
<path fill-rule="evenodd" clip-rule="evenodd" d="M32.9735 29.8809C32.9735 33.2419 30.1033 35.9833 26.5886 35.9833H8.39557C4.88089 35.9833 2.00074 33.237 2.00074 29.8809C1.99082 29.1522 1.99082 21.7114 8.39557 17.2697C9.02514 16.8335 9.67949 16.4468 10.3586 16.1147C11.1022 15.7528 11.3253 14.8407 10.8643 14.1814C9.82325 12.6892 9.3077 10.8303 9.56548 8.8573C10.0315 5.33271 13.0504 2.50213 16.7485 2.13034C21.6512 1.63461 25.7855 5.28809 25.7855 9.87353C25.7855 11.5193 25.2502 13.0511 24.3331 14.3053C23.8621 14.9547 24.105 15.8569 24.8338 16.2287C25.4336 16.5361 26.0185 16.8831 26.5787 17.2747C32.9785 21.7213 32.9785 29.1572 32.9636 29.8859L32.9735 29.8809Z" stroke="#387A38" stroke-width="2.5" stroke-miterlimit="10"/>
</svg>
