<svg width="17" height="17" viewBox="0 0 17 17" fill="none" xmlns="http://www.w3.org/2000/svg">
<path fill-rule="evenodd" clip-rule="evenodd" d="M8.34336 2.05635C4.69828 2.05635 1.74336 5.01127 1.74336 8.65635C1.74336 12.3014 4.69828 15.2563 8.34336 15.2563C11.9884 15.2563 14.9434 12.3014 14.9434 8.65635C14.9434 5.01127 11.9884 2.05635 8.34336 2.05635ZM0.505859 8.65635C0.505859 4.32782 4.01483 0.818848 8.34336 0.818848C12.6719 0.818848 16.1809 4.32782 16.1809 8.65635C16.1809 12.9849 12.6719 16.4938 8.34336 16.4938C4.01483 16.4938 0.505859 12.9849 0.505859 8.65635ZM5.35362 5.66661C5.59526 5.42497 5.98703 5.42497 6.22867 5.66661L8.34336 7.7813L10.4581 5.66661C10.6997 5.42498 11.0915 5.42498 11.3331 5.66661C11.5747 5.90825 11.5747 6.30002 11.3331 6.54166L9.2184 8.65635L11.3331 10.771C11.5747 11.0127 11.5747 11.4044 11.3331 11.6461C11.0915 11.8877 10.6997 11.8877 10.4581 11.6461L8.34336 9.53139L6.22867 11.6461C5.98703 11.8877 5.59526 11.8877 5.35362 11.6461C5.11199 11.4044 5.11199 11.0127 5.35362 10.771L7.46831 8.65635L5.35362 6.54166C5.11199 6.30002 5.11199 5.90825 5.35362 5.66661Z" fill="#262627"/>
<circle cx="8.34375" cy="8.65625" r="7.21875" fill="#262627"/>
<path fill-rule="evenodd" clip-rule="evenodd" d="M5.3531 5.66658C5.59474 5.42494 5.98651 5.42494 6.22815 5.66658L8.34284 7.78127L10.4575 5.66658C10.6992 5.42494 11.0909 5.42494 11.3326 5.66658C11.5742 5.90822 11.5742 6.29999 11.3326 6.54162L9.21788 8.65632L11.3326 10.771C11.5742 11.0126 11.5742 11.4044 11.3326 11.6461C11.0909 11.8877 10.6992 11.8877 10.4575 11.6461L8.34284 9.53136L6.22815 11.6461C5.98651 11.8877 5.59474 11.8877 5.3531 11.6461C5.11147 11.4044 5.11147 11.0126 5.3531 10.771L7.46779 8.65632L5.3531 6.54162C5.11147 6.29999 5.11147 5.90822 5.3531 5.66658Z" fill="white"/>
</svg>
