<svg width="31" height="37" viewBox="0 0 31 37" fill="none" xmlns="http://www.w3.org/2000/svg">
<path fill-rule="evenodd" clip-rule="evenodd" d="M14.7436 10.0243C22.4669 10.1581 28.6387 9.35008 29.3129 11.4024C29.3377 11.4817 29.3575 12.8747 29.3972 15.6507C29.4071 16.2803 29.412 16.5976 29.412 16.6967C29.412 17.3362 29.3823 18.3375 29.2137 21.7085C28.8766 28.4701 28.7081 31.8559 27.444 33.1894C26.3336 34.3544 24.5787 34.6419 21.0591 35.2169C19.5025 35.4697 15.1203 36.0745 9.22617 34.9591C5.73628 34.2998 3.99629 33.9627 3.01971 32.8821C2.13732 31.9105 1.96382 30.9339 1.37887 21.4408C1.33921 20.7864 1.23511 19.096 1.24998 16.9049C1.24998 16.1911 1.26981 15.6557 1.27476 15.4723C1.34912 12.84 1.38878 11.5213 1.60194 11.0207C2.45459 9.01298 7.57045 9.89041 14.7485 10.0143L14.7436 10.0243Z" fill="#D8D8D8"/>
<path d="M14.7437 11.2635C17.143 11.3031 19.5373 11.2486 21.9317 11.2238C22.9231 11.2139 23.9195 11.2089 24.911 11.2436C25.3026 11.2585 25.6992 11.2783 26.0908 11.3081C26.2693 11.3229 26.4477 11.3378 26.6212 11.3626C26.6262 11.3626 26.8344 11.3923 26.7055 11.3725C26.5667 11.3527 26.8691 11.4023 26.8988 11.4072C27.1764 11.4568 27.454 11.5163 27.7217 11.6055C27.8357 11.6402 28.0935 11.7741 27.8457 11.6452C27.9646 11.7096 28.0787 11.7741 28.1927 11.8435C27.8655 11.6402 28.2373 11.8435 28.2075 11.8881C28.2075 11.8881 28.0142 11.6303 28.1332 11.7988C28.153 11.8286 28.1877 11.8831 28.1976 11.9129C28.1332 11.6055 28.0787 11.2535 28.0935 11.7195C28.158 13.3703 28.1679 15.031 28.1728 16.6817C28.1877 20.0477 27.9299 23.4483 27.692 26.8093C27.578 28.3957 27.5185 29.635 27.1219 31.1023C27.0624 31.3254 26.9831 31.5435 26.9087 31.7616C26.8542 31.9252 27.0079 31.5485 26.9385 31.6972C26.9137 31.7467 26.8939 31.7963 26.8691 31.8409C26.8146 31.9401 26.76 32.0392 26.7055 32.1384C26.6262 32.2821 26.527 32.3565 26.6956 32.1731C26.6262 32.2474 26.5617 32.3267 26.4874 32.4011C26.4428 32.4457 26.1305 32.7035 26.3337 32.5548C26.185 32.6638 26.0313 32.758 25.8677 32.8473C25.5406 33.0257 25.5703 33.0059 25.1489 33.1447C24.7771 33.2637 24.4004 33.3578 24.0187 33.4471C22.933 33.69 21.8276 33.8635 20.7271 34.037C20.5238 34.0717 20.3206 34.1014 20.1173 34.1312C19.9141 34.1609 20.3255 34.1064 19.9637 34.151C19.8001 34.1708 19.6315 34.1907 19.4679 34.2105C18.7045 34.2898 17.9411 34.3443 17.1777 34.3691C15.0312 34.4385 12.8699 34.3195 10.7432 33.9874C8.79997 33.685 6.67332 33.4074 4.83418 32.6688C5.01264 32.7432 4.67059 32.5895 4.60615 32.5548C4.48222 32.4903 4.36325 32.416 4.24427 32.3416C4.08068 32.2425 4.32854 32.4556 4.10051 32.2326C4.0212 32.1532 3.94188 32.069 3.86256 31.9897C3.83282 31.9599 3.80803 31.9153 3.77829 31.8905C3.64445 31.7765 3.95179 32.1681 3.87248 32.0095C3.82786 31.9252 3.76342 31.8459 3.71385 31.7666C3.60479 31.5782 3.60479 31.4394 3.68906 31.7517C3.65932 31.6327 3.59983 31.5138 3.56513 31.3898C3.47094 31.0775 3.4065 30.7503 3.35197 30.4281C3.32718 30.2943 3.24787 29.6994 3.29248 30.0415C3.25282 29.749 3.22308 29.4565 3.18838 29.164C3.11898 28.4849 3.05949 27.8008 3.00496 27.1216C2.84633 25.0991 2.71744 23.0765 2.60343 21.054C2.48941 19.0314 2.47454 17.113 2.52907 15.14C2.55881 14.1684 2.57368 13.1918 2.64804 12.2202C2.65796 12.0715 2.67283 11.9228 2.6877 11.7741C2.65796 12.0368 2.6877 11.784 2.71249 11.6749C2.73232 11.5906 2.76206 11.5113 2.78189 11.427C2.78189 11.4419 2.64804 11.7344 2.73727 11.546C2.7571 11.5014 2.88599 11.3279 2.7571 11.4964C2.5836 11.7245 3.00001 11.2833 2.78684 11.4617C2.63317 11.5956 2.90582 11.3923 2.95043 11.3676C2.99505 11.3378 3.04958 11.318 3.09915 11.2932C3.24787 11.2188 2.88103 11.3676 3.04462 11.318C3.18342 11.2734 3.31727 11.2288 3.45607 11.1941C3.59487 11.1594 3.72872 11.1346 3.86752 11.1098C3.94188 11.0949 4.01624 11.085 4.0906 11.0751C4.03607 11.085 3.85761 11.0999 4.11043 11.0751C4.48222 11.0354 4.85401 11.0156 5.2258 11.0007C7.16904 10.9412 9.12219 11.08 11.0654 11.1643C12.2948 11.2188 13.5242 11.2635 14.7536 11.2833C16.3498 11.313 16.3498 8.83441 14.7536 8.80467C12.3097 8.76005 9.87073 8.60638 7.42682 8.53202C5.83554 8.48245 4.06085 8.3833 2.52411 8.88398C1.12121 9.34005 0.392501 10.2869 0.218997 11.7294C-0.0288644 13.7272 -0.00903543 15.8192 0.0107935 17.8516C0.0454941 21.7133 0.30327 25.6246 0.73455 29.4615C0.903096 30.9833 1.06173 32.5696 2.13249 33.7544C3.20325 34.9392 4.94324 35.3556 6.46016 35.6828C9.01313 36.233 11.5958 36.6742 14.2083 36.8081C17.8023 36.9965 21.4905 36.6098 24.9903 35.7571C26.4576 35.4002 27.9349 34.7806 28.7925 33.4719C29.4667 32.4457 29.6947 31.1469 29.8583 29.9522C30.1458 27.8702 30.2499 25.7634 30.359 23.6665C30.468 21.5695 30.5821 19.5966 30.6415 17.5641C30.6862 16.067 30.6267 14.5699 30.6068 13.0728C30.5969 12.5375 30.6068 11.9922 30.5672 11.4617C30.5077 10.738 30.0913 10.158 29.5113 9.74654C28.3612 8.9286 26.7352 8.85424 25.377 8.7898C23.171 8.68074 20.9601 8.76997 18.7541 8.79475C17.4206 8.80963 16.0821 8.81458 14.7487 8.79475C13.1524 8.76997 13.1524 11.2486 14.7487 11.2734L14.7437 11.2635Z" fill="#999899"/>
<path d="M23.9442 9.84078C24.1772 6.09807 22.0605 2.2463 18.5706 0.739296C14.8477 -0.871805 10.5398 0.258444 8.0761 3.47073C6.76739 5.17602 6.07338 7.3225 6.11799 9.47394C6.15269 11.0652 8.63131 11.0702 8.59661 9.47394C8.52225 5.7461 11.3528 2.38014 15.2046 2.47433C19.0564 2.56852 21.6936 6.14764 21.4606 9.84573C21.3615 11.437 23.8401 11.432 23.9392 9.84573L23.9442 9.84078Z" fill="#999899"/>
<path d="M8.33882 9.55322C8.07609 5.74111 11.105 2.55856 14.9022 2.47925C18.6994 2.39993 21.9316 5.36932 21.8522 9.21117C21.8175 10.8124 24.3061 10.8124 24.3408 9.21117C24.4201 5.32966 21.8622 1.79515 18.2335 0.506269C14.6048 -0.782612 10.0788 0.436868 7.65968 3.62437C6.38567 5.30487 5.70653 7.44144 5.85029 9.54826C5.8949 10.2175 6.39063 10.7925 7.09456 10.7925C7.73404 10.7925 8.38344 10.2224 8.33882 9.54826V9.55322Z" fill="#999899"/>
</svg>
